<svg id="Layer_1" data-name="Layer 1" xmlns="http://www.w3.org/2000/svg" viewBox="0 0 39.83 9.3"><defs><style>.cls-1{fill:#493011;}</style></defs><path class="cls-1" d="M960.71,515.2a6.05,6.05,0,0,0-1.53-2.62,4.27,4.27,0,0,0-4.91-.49,6.28,6.28,0,0,0-1.32,1.07,12.79,12.79,0,0,1-1.72,1.77,1.77,1.77,0,0,1-.78.29,2.54,2.54,0,0,1-.91,0,2.59,2.59,0,0,1-1.55-1,14.82,14.82,0,0,0-2.11-2.13,5.1,5.1,0,0,0-1.74-.79,5.29,5.29,0,0,0-1.85-.1,4.64,4.64,0,0,0-1.82.59,5.23,5.23,0,0,0-1.38,1.12,23.62,23.62,0,0,1-1.69,1.93,2.18,2.18,0,0,1-.78.44,2.92,2.92,0,0,1-.91.14,5.71,5.71,0,0,1-2.16-.86,6.81,6.81,0,0,0-3-.73,12.42,12.42,0,0,0-1.44.13c-.39,0-.79.09-1.18.15a6.47,6.47,0,0,0,1.34-1.19,6.64,6.64,0,0,0,1.4-2.83l0-.12a.2.2,0,0,0,0-.07.11.11,0,0,0-.15-.06c-1.56.65-3,1.43-4.57,2.15s-3,1.53-4.45,2.39l0,0h0s0,0,0,0,0,0,0,0l0,0,0,0c1.45.87,3,1.6,4.45,2.4s3,1.5,4.57,2.14a.09.09,0,0,0,.07,0,.12.12,0,0,0,.09-.14l0-.12a6.66,6.66,0,0,0-1.41-2.82,6.85,6.85,0,0,0-1.27-1.15c.37,0,.75.08,1.12.1a10.15,10.15,0,0,1,1.32.16,5.7,5.7,0,0,1,2.18,1c.34.26.71.53,1.16.82a4.49,4.49,0,0,0,3.45.63,4.84,4.84,0,0,0,1.69-.78A20.06,20.06,0,0,0,941,514.8a2.35,2.35,0,0,1,1.56-.8,2.26,2.26,0,0,1,1.65.42A14.84,14.84,0,0,1,946,516.2a7,7,0,0,0,1.37,1.08,4.9,4.9,0,0,0,1.81.6,5.33,5.33,0,0,0,1.82-.1,4.33,4.33,0,0,0,1.73-.82,10.83,10.83,0,0,0,2-2.31,2.68,2.68,0,0,1,3.59-.9,5.35,5.35,0,0,1,1.67,1.81c.49.75.91,1.58,1.36,2.4A17.87,17.87,0,0,0,960.71,515.2Z" transform="translate(-921.47 -509.85)"/></svg>