<svg id="Layer_1" data-name="Layer 1" xmlns="http://www.w3.org/2000/svg" viewBox="0 0 9.3 39.83"><defs><style>.cls-1{fill:#fff;}</style></defs><path class="cls-1" d="M683.93,364.91a6.24,6.24,0,0,0-2.63,1.53,4.3,4.3,0,0,0-.48,4.92,6.21,6.21,0,0,0,1.07,1.31,13.35,13.35,0,0,1,1.77,1.73,1.86,1.86,0,0,1,.29.77,2.85,2.85,0,0,1,0,.92,2.57,2.57,0,0,1-1,1.54,15.53,15.53,0,0,0-2.13,2.12,5,5,0,0,0-.79,1.74,5.22,5.22,0,0,0-.1,1.84,4.68,4.68,0,0,0,.59,1.83,5.4,5.4,0,0,0,1.12,1.38,21.84,21.84,0,0,1,1.93,1.69,2.14,2.14,0,0,1,.44.77,3,3,0,0,1,.14.92,5.77,5.77,0,0,1-.86,2.16,6.77,6.77,0,0,0-.73,3,12.42,12.42,0,0,0,.13,1.44c0,.39.09.78.15,1.18a6.23,6.23,0,0,0-1.19-1.34,6.64,6.64,0,0,0-2.83-1.4l-.12,0a.09.09,0,0,0-.07,0,.11.11,0,0,0-.06.15c.65,1.55,1.43,3,2.15,4.57s1.53,3,2.39,4.44l0,0h0s0,0,0,0,0,0,0,0l0,0s0,0,0,0c.87-1.44,1.6-3,2.4-4.44s1.5-3,2.14-4.57a.11.11,0,0,0,0-.08.11.11,0,0,0-.14-.08l-.12,0a6.65,6.65,0,0,0-2.82,1.4,7.18,7.18,0,0,0-1.15,1.27c0-.37.08-.74.1-1.11a9.94,9.94,0,0,1,.16-1.32,5.74,5.74,0,0,1,1-2.19c.26-.34.53-.7.82-1.15a4.59,4.59,0,0,0,.66-1.64,4.46,4.46,0,0,0,0-1.82,4.6,4.6,0,0,0-.77-1.68,20.06,20.06,0,0,0-2.05-2.11,2.39,2.39,0,0,1-.8-1.57,2.24,2.24,0,0,1,.42-1.64,14.78,14.78,0,0,1,1.78-1.76,6.48,6.48,0,0,0,1.08-1.37,4.85,4.85,0,0,0,.6-1.8,5.39,5.39,0,0,0-.1-1.83,4.46,4.46,0,0,0-.82-1.73,10.46,10.46,0,0,0-2.31-2,2.63,2.63,0,0,1-1.16-1.58,2.72,2.72,0,0,1,.25-2,5.46,5.46,0,0,1,1.82-1.66c.75-.49,1.58-.91,2.4-1.37A17.87,17.87,0,0,0,683.93,364.91Z" transform="translate(-678.58 -364.32)"/></svg>