<svg id="Layer_1" data-name="Layer 1" xmlns="http://www.w3.org/2000/svg" viewBox="0 0 59.99 70"><defs><style>.cls-1{fill:#343434;}</style></defs><path class="cls-1" d="M533,412h28.85c1.08,0,1.11,0,1,1.1q-.6,7-1.24,14l-1.29,14.51q-.63,7.07-1.27,14.12t-1.25,14.12c-.11,1.17-.18,2.34-.36,3.5a1.15,1.15,0,0,1-.66.74q-8.51,2.91-17,5.76c-2.12.71-4.24,1.44-6.37,2.12a2.06,2.06,0,0,1-1.15-.07q-6.79-2.25-13.56-4.54c-3.25-1.09-6.51-2.17-9.75-3.3a1.09,1.09,0,0,1-.59-.8c-.64-6.78-1.23-13.56-1.84-20.34-.54-6-1.11-12.06-1.65-18.1s-1.06-12.23-1.6-18.35c-.1-1.19-.18-2.39-.34-3.58-.09-.7.17-.87.83-.87q9.21,0,18.42,0Zm.56,19.85c-.21.22-.25.3-.31.33l-9.74,4c-2.4,1-4.81,2-7.22,3a.94.94,0,0,0-.65,1.1c.18,1.78.27,3.56.4,5.35.08,1.09.09,1.09,1.18,1.09h24.21c.47,0,.77.11.74.67-.17,2.83-.3,5.65-.5,8.48a1.08,1.08,0,0,1-.58.8q-3.61,1.14-7.28,2.15a3.13,3.13,0,0,1-1.49,0c-2.26-.53-4.5-1.13-6.76-1.65a.75.75,0,0,1-.7-.79c-.11-1.54-.27-3.08-.38-4.63,0-.57-.29-.77-.86-.76-2,0-4.06.05-6.09,0-.76,0-.9.25-.84.93.27,2.87.51,5.75.75,8.62.15,1.89.14,1.89,1.92,2.48l.61.2c3.61,1.05,7.21,2.11,10.83,3.14a5.72,5.72,0,0,0,3.8.29c2.16-.8,4.43-1.34,6.66-2s4.29-1.26,6.44-1.89a1,1,0,0,0,.81-1c.58-7.14,1.21-14.26,1.85-21.39.07-.72-.12-.93-.84-.92-5,0-10.1,0-15.15,0-.24,0-.49-.05-.94-.09.28-.2.37-.29.47-.34,5.52-2.26,11-4.53,16.56-6.77a1.18,1.18,0,0,0,.85-1.17q.23-2.76.52-5.5c.12-1.15.15-1.15-1-1.15H514.53c-.45,0-.59.21-.53.66.3,2,.59,3.91.83,5.87.07.63.33.77.93.77,5.63,0,11.27,0,16.9,0C532.92,431.74,533.17,431.77,533.6,431.81Z" transform="translate(-502.95 -411.94)"/></svg>