<?xml version="1.0" encoding="utf-8"?>
<!-- Generator: Adobe Illustrator 26.3.1, SVG Export Plug-In . SVG Version: 6.00 Build 0)  -->
<svg version="1.1" id="Layer_1" xmlns="http://www.w3.org/2000/svg" xmlns:xlink="http://www.w3.org/1999/xlink" x="0px" y="0px"
	 viewBox="0 0 60 70" style="enable-background:new 0 0 60 70;" xml:space="preserve">
<style type="text/css">
	.st0{fill:#1A1B1F;}
</style>
<path class="st0" d="M30.1,0h28.9c1.1,0,1.1,0,1,1.1c-0.4,4.7-0.8,9.3-1.2,14l-1.3,14.5c-0.4,4.7-0.8,9.4-1.3,14.1
	c-0.4,4.7-0.8,9.4-1.2,14.1c-0.1,1.2-0.2,2.3-0.4,3.5c-0.1,0.3-0.3,0.6-0.7,0.7c-5.7,1.9-11.3,3.9-17,5.8c-2.1,0.7-4.2,1.4-6.4,2.1
	c-0.4,0.1-0.8,0.1-1.1,0c-4.5-1.5-9-3-13.6-4.5c-3.2-1.1-6.5-2.2-9.7-3.3c-0.3-0.2-0.5-0.5-0.6-0.8c-0.6-6.8-1.2-13.6-1.8-20.3
	C3,34.9,2.5,28.9,2,22.8S0.9,10.6,0.4,4.5C0.3,3.3,0.2,2.1,0,0.9C-0.1,0.2,0.2,0,0.9,0h18.4L30.1,0z M30.6,19.8
	c-0.2,0.2-0.2,0.3-0.3,0.3l-9.7,4l-7.2,3c-0.5,0.1-0.8,0.6-0.6,1.1c0.2,1.8,0.3,3.6,0.4,5.4c0.1,1.1,0.1,1.1,1.2,1.1h24.2
	c0.5,0,0.8,0.1,0.7,0.7c-0.2,2.8-0.3,5.7-0.5,8.5c-0.1,0.3-0.3,0.6-0.6,0.8c-2.4,0.8-4.8,1.5-7.3,2.2c-0.5,0.1-1,0.1-1.5,0
	c-2.3-0.5-4.5-1.1-6.8-1.7c-0.4,0-0.7-0.4-0.7-0.8c-0.1-1.5-0.3-3.1-0.4-4.6c0-0.6-0.3-0.8-0.9-0.8c-2,0-4.1,0-6.1,0
	c-0.8,0-0.9,0.2-0.8,0.9c0.3,2.9,0.5,5.8,0.8,8.6c0.1,1.9,0.1,1.9,1.9,2.5l0.6,0.2c3.6,1,7.2,2.1,10.8,3.1c1.2,0.5,2.5,0.6,3.8,0.3
	c2.2-0.8,4.4-1.3,6.7-2l6.4-1.9c0.5-0.1,0.8-0.5,0.8-1c0.6-7.1,1.2-14.3,1.8-21.4c0.1-0.7-0.1-0.9-0.8-0.9H31.5
	c-0.2,0-0.5,0-0.9-0.1c0.3-0.2,0.4-0.3,0.5-0.3c5.5-2.3,11-4.5,16.6-6.8c0.5-0.1,0.9-0.6,0.8-1.2c0.2-1.8,0.3-3.7,0.5-5.5
	c0.1-1.1,0.2-1.1-1-1.1H11.6c-0.4,0-0.6,0.2-0.5,0.7c0.3,2,0.6,3.9,0.8,5.9c0.1,0.6,0.3,0.8,0.9,0.8h16.9
	C30,19.7,30.3,19.7,30.6,19.8L30.6,19.8z"/>
</svg>
