<svg id="Layer_1" data-name="Layer 1" xmlns="http://www.w3.org/2000/svg" viewBox="0 0 59.98 70.02"><defs><style>.cls-1{fill:#493011;}</style></defs><path class="cls-1" d="M30.05.06H58.9c1.08,0,1.11,0,1,1.1q-.6,7-1.24,14L57.37,29.67q-.63,7.06-1.27,14.12T54.85,57.91c-.11,1.17-.18,2.34-.36,3.5a1.16,1.16,0,0,1-.66.74q-8.51,2.91-17,5.76c-2.12.71-4.24,1.44-6.37,2.12A2.05,2.05,0,0,1,29.31,70q-6.79-2.25-13.56-4.54C12.5,64.33,9.24,63.25,6,62.12a1.11,1.11,0,0,1-.59-.8C4.77,54.54,4.18,47.76,3.57,41,3,35,2.46,28.92,1.92,22.88S.86,10.65.32,4.53C.22,3.34.14,2.14,0,1-.11.25.15.08.81.08H19.23Zm.56,19.85c-.21.22-.25.3-.31.33l-9.74,4-7.22,3a.94.94,0,0,0-.65,1.1c.18,1.78.27,3.56.4,5.35.08,1.09.09,1.09,1.18,1.09H38.48c.47,0,.77.11.74.67-.17,2.83-.3,5.65-.5,8.48a1.09,1.09,0,0,1-.58.8c-2.41.76-4.83,1.48-7.28,2.15a3.13,3.13,0,0,1-1.49,0c-2.26-.53-4.5-1.13-6.76-1.65a.75.75,0,0,1-.7-.79c-.11-1.54-.27-3.08-.38-4.63,0-.57-.29-.77-.86-.76-2,0-4.06.05-6.09,0-.76,0-.9.25-.84.93.27,2.87.51,5.75.75,8.62.15,1.89.14,1.89,1.92,2.48l.61.2c3.61,1,7.21,2.11,10.83,3.14a5.72,5.72,0,0,0,3.8.29c2.16-.8,4.43-1.34,6.66-2l6.44-1.89a1,1,0,0,0,.81-1c.58-7.14,1.21-14.26,1.85-21.39.07-.72-.12-.93-.84-.92H31.42c-.24,0-.49-.05-.94-.09.28-.2.37-.29.47-.34,5.52-2.26,11-4.53,16.56-6.77a1.17,1.17,0,0,0,.85-1.17c.15-1.84.33-3.67.52-5.5.12-1.15.15-1.15-1-1.15H11.58c-.45,0-.59.21-.53.66.3,2,.59,3.91.83,5.87.07.63.33.77.93.77h16.9c.26,0,.51,0,.94.08Z" transform="translate(0.04 -0.06)"/></svg>