<svg id="Layer_1" data-name="Layer 1" xmlns="http://www.w3.org/2000/svg" viewBox="0 0 46.63 70"><defs><style>.cls-1{fill:#493011;}</style></defs><path class="cls-1" d="M36.44,23.35c7.21,1.23,10.48,7,10.22,12.13a11.64,11.64,0,0,1-10,11.09,11.84,11.84,0,0,1-13.22-9.23V58.12a11.37,11.37,0,0,1-3.63,8.58A11.17,11.17,0,0,1,8.19,69.38,11.06,11.06,0,0,1,.32,60.59a11.63,11.63,0,0,1,9-13.77l.5-.09a3.41,3.41,0,0,0,.83-.08C4.4,45.78,0,41,0,35A11.7,11.7,0,0,1,10.52,23.35,11.68,11.68,0,0,1,10.38.13C11.15.06,11.93,0,12.7,0H34.88a11.31,11.31,0,0,1,8.46,3.54,11.68,11.68,0,0,1-6,19.61Zm-13,9.52a12,12,0,0,1,9.29-9.39H23.44Z" transform="translate(-0.04 -0.01)"/></svg>