<svg id="Layer_1" data-name="Layer 1" xmlns="http://www.w3.org/2000/svg" viewBox="0 0 46.7 70"><defs><style>.cls-1{fill:#343434;}</style></defs><path class="cls-1" d="M484,498.87c7.21,1.23,10.48,7,10.22,12.13a11.65,11.65,0,0,1-10,11.09A11.84,11.84,0,0,1,471,512.86c0,.12,0,.23,0,.35s0,.24,0,.36c0,6.69,0,13.38,0,20.07a11.35,11.35,0,0,1-3.63,8.58,11.18,11.18,0,0,1-11.62,2.68,11.06,11.06,0,0,1-7.87-8.79,11.63,11.63,0,0,1,9.5-13.86c.23,0,.47,0,.83-.08-6.25-.87-10.64-5.68-10.61-11.62a11.7,11.7,0,0,1,10.48-11.68,11.68,11.68,0,0,1-.14-23.22c.77-.07,1.55-.12,2.32-.12q11.1,0,22.18,0a11.28,11.28,0,0,1,8.46,3.54,11.68,11.68,0,0,1-6,19.61Zm-13,9.52a12,12,0,0,1,9.29-9.39H471Z" transform="translate(-447.56 -475.52)"/></svg>