<?xml version="1.0" encoding="utf-8"?>
<!-- Generator: Adobe Illustrator 26.3.1, SVG Export Plug-In . SVG Version: 6.00 Build 0)  -->
<svg version="1.1" id="Layer_1" xmlns="http://www.w3.org/2000/svg" xmlns:xlink="http://www.w3.org/1999/xlink" x="0px" y="0px"
	 viewBox="0 0 69.8 67" style="enable-background:new 0 0 69.8 67;" xml:space="preserve">
<style type="text/css">
	.st0{fill:#1A1B1F;}
</style>
<path class="st0" d="M0,32.2c0.2-1.2,0.3-2.5,0.5-3.7C2,19.7,7,11.8,14.3,6.7C20.9,1.9,29-0.5,37.1,0.1c16,0.9,29.3,12.6,32.2,28.4
	c2.6,15-5.1,29.9-18.9,36.5c-1.3,0.6-2.7,1.1-4.1,1.7c-0.1,0.1-0.3,0.1-0.5,0.1c-0.9,0.4-1.9,0-2.3-0.9c0,0,0,0,0,0
	c-0.1-0.3-0.2-0.6-0.1-0.9v-9c0-0.5,0-0.9-0.1-1.4c-0.1-1.9-0.9-3.6-2.2-5c1.7-0.4,3.4-0.6,5-1.1c6.3-1.7,10-6.2,10.6-12.7
	c0.2-1.8,0.2-3.7,0-5.5c-0.3-2.4-1.3-4.7-3-6.5c-0.3-0.2-0.4-0.7-0.2-1c0.8-2.7,0.7-5.6-0.3-8.2c-0.2-0.6-0.7-0.5-1-0.5
	c-1.3,0.2-2.6,0.5-3.9,1c-1.5,0.7-2.9,1.4-4.3,2.3c-0.3,0.2-0.7,0.2-1.1,0.1c-5.4-1.3-10.9-1.3-16.3,0c-0.3,0.1-0.7,0-1-0.2
	c-2.1-1.4-4.4-2.5-6.9-3.1c-2-0.4-2.2-0.3-2.8,1.7c-0.7,2.3-0.6,4.7,0.1,7c0,0.2,0,0.4-0.1,0.6c-3,3.4-3.7,7.3-3.2,11.6
	c0.2,2.7,1,5.3,2.5,7.6c2,2.9,5,5,8.5,5.7c1.5,0.4,3.1,0.6,4.7,1c-1.1,1.2-1.8,2.6-2,4.2c-0.1,0.2-0.2,0.4-0.4,0.5
	c-3.7,1.5-7.4,0.9-9.8-2.9c-1-1.9-2.9-3.2-5.1-3.5c-0.4,0-0.9,0-1.3,0.1c-0.7,0.1-0.8,0.6-0.3,1.1c0.3,0.3,0.6,0.5,0.9,0.8
	c1.8,1.1,3.1,2.7,3.8,4.6c1.6,4.4,5.7,5.9,9.8,5.5l2.2-0.3v5.4c0,1.6-1.1,2.5-2.6,1.9c-12-4.4-19.7-12.6-22.8-25
	c-0.3-1.6-0.6-3.2-0.7-4.8L0,36.4V32.2z"/>
</svg>
