<svg id="Layer_1" data-name="Layer 1" xmlns="http://www.w3.org/2000/svg" viewBox="0 0 61.6 69.97"><defs><style>.cls-1{fill:#493011;}</style></defs><path class="cls-1" d="M0,.93V0H61.6c-.29,3.21-.59,6.42-.88,9.62Q58.38,35.87,56.07,62.1c-.06.77-.38,1-1.06,1.2q-6.66,1.82-13.3,3.7c-3.52,1-7,2-10.56,3h-.7a4.35,4.35,0,0,0-.63-.25Q18.21,66.5,6.58,63.28c-.71-.19-1-.45-1-1.22-.28-3.6-.62-7.2-.94-10.79q-2-22-3.93-44.1C.47,5.09.22,3,0,.93Zm50.07,12H11.49l2.07,23.29H40.25c-.28,3.26-.54,6.39-.87,9.51,0,.26-.45.6-.75.68q-3.69,1.06-7.39,2a2.28,2.28,0,0,1-1.13,0c-2.36-.61-4.71-1.29-7.07-1.88a1.11,1.11,0,0,1-1-1.19c-.1-1.7-.29-3.4-.44-5.11H13.89c.34,3.86.65,7.62,1,11.37,0,.33.56.77.95.88q7,2,14.09,3.93a3.45,3.45,0,0,0,1.69,0c4.59-1.24,9.16-2.57,13.76-3.79A1.46,1.46,0,0,0,46.65,51q.74-8.84,1.56-17.65c.14-1.58.25-3.15.38-4.86h-28l-.69-7.92H49.41c.22-2.62.45-5.08.66-7.61Z" transform="translate(0 -0.03)"/></svg>