<svg id="Layer_1" data-name="Layer 1" xmlns="http://www.w3.org/2000/svg" viewBox="0 0 61.6 70"><defs><style>.cls-1{fill:#343434;}</style></defs><path class="cls-1" d="M413.14,434.9V434h61.6c-.29,3.21-.59,6.42-.88,9.62q-2.34,26.22-4.65,52.45c-.06.77-.38,1-1.06,1.2q-6.66,1.81-13.3,3.7c-3.52,1-7,2-10.56,3h-.7a4.86,4.86,0,0,0-.63-.25q-11.61-3.25-23.24-6.47c-.71-.19-1-.45-1.05-1.22-.28-3.6-.62-7.2-.94-10.79q-2-22-3.93-44.1C413.61,439.06,413.36,437,413.14,434.9Zm50.07,12H424.63l2.07,23.29h26.69c-.28,3.26-.54,6.39-.87,9.51,0,.26-.45.6-.75.68q-3.69,1.07-7.39,2a2.29,2.29,0,0,1-1.13-.05c-2.36-.61-4.71-1.29-7.07-1.88a1.11,1.11,0,0,1-1-1.19c-.1-1.7-.29-3.4-.44-5.11h-7.71c.34,3.86.65,7.62,1,11.37,0,.33.56.77.95.88q7,2,14.09,3.93a3.34,3.34,0,0,0,1.69,0c4.59-1.24,9.16-2.57,13.76-3.79a1.46,1.46,0,0,0,1.27-1.58c.49-5.89,1-11.77,1.56-17.65.14-1.58.25-3.15.38-4.86H433.73l-.69-7.92h29.51C462.77,451.91,463,449.45,463.21,446.92Z" transform="translate(-413.14 -433.97)"/></svg>