<?xml version="1.0" encoding="utf-8"?>
<!-- Generator: Adobe Illustrator 26.3.1, SVG Export Plug-In . SVG Version: 6.00 Build 0)  -->
<svg version="1.1" id="Layer_1" xmlns="http://www.w3.org/2000/svg" xmlns:xlink="http://www.w3.org/1999/xlink" x="0px" y="0px"
	 viewBox="0 0 71.8 70" style="enable-background:new 0 0 71.8 70;" xml:space="preserve">
<style type="text/css">
	.st0{fill:#1A1B1F;}
	.st1{fill:#343434;}
	.st2{fill:#493011;}
</style>
<path class="st0" d="M35.9,70H12.8C5.8,70,0.1,64.4,0,57.4V12.8c-0.1-6,4-11.2,9.8-12.5c1-0.2,2-0.4,3-0.3h46.2
	c6,0,11.2,4.1,12.5,10c0.2,0.9,0.3,1.8,0.3,2.6v44.9c-0.1,6-4.3,11.1-10.1,12.3C60.8,69.9,59.9,70,59,70H35.9z M40.9,49.4h3
	c0.5,0,0.6-0.1,0.4-0.6c-0.3-0.8-0.5-1.6-0.8-2.4c-3.3-9.4-6.7-18.8-10-28.2C33.4,18.1,33.2,18,33,18h-7.5c-0.3,0-0.4,0.1-0.4,0.4
	c0,0.7-0.1,1.4-0.2,2.1c-1,3.1-2.1,6.1-3.1,9.2C19.4,36,17.2,42.4,15,48.8c-0.2,0.5-0.1,0.7,0.5,0.7h5.2c0.5,0,0.6-0.1,0.8-0.6
	c0.7-2.2,1.4-4.3,2.1-6.5c0-0.2,0.3-0.4,0.5-0.4h10.2c0.3,0,0.6,0.2,0.6,0.5c0.7,2.2,1.5,4.3,2.2,6.5c0.1,0.3,0.4,0.6,0.7,0.5
	C38.9,49.4,39.9,49.5,40.9,49.4L40.9,49.4z M54.2,37.4V26.1c0-0.5,0-0.6-0.6-0.6H48c-0.5,0-0.5,0-0.5,0.5v22.7
	c0,0.6,0.1,0.6,0.7,0.6h5.4c0.6,0,0.7,0,0.7-0.7L54.2,37.4z M54.6,19.2c0.1-1.9-1.3-3.6-3.3-3.7h-0.4c-2-0.1-3.7,1.5-3.8,3.5
	c0,0,0,0,0,0v0.2c-0.1,2.1,1.5,3.8,3.5,3.9s3.8-1.5,3.9-3.5C54.6,19.4,54.6,19.3,54.6,19.2L54.6,19.2z"/>
<path class="st1" d="M33,35.9c-1.3-4.1-2.7-8.2-3.9-12.4c-0.5,2.4-1.3,4.7-2,7.1c-0.5,1.7-1,3.4-1.6,5c-0.1,0.2,0,0.3,0.2,0.3h1.1
	L33,35.9z"/>
<path class="st2" d="M33,35.9h-7.2c-0.4,0-0.3-0.1-0.2-0.3c0.6-1.7,1.1-3.3,1.6-5c0.7-2.3,1.5-4.6,2-7.1
	C30.3,27.6,31.7,31.7,33,35.9z"/>
</svg>
