<svg id="Layer_1" data-name="Layer 1" xmlns="http://www.w3.org/2000/svg" viewBox="0 0 71.8 70"><defs><style>.cls-1{fill:#343434;}</style></defs><path class="cls-1" d="M520.93,435H497.84a12.71,12.71,0,0,1-12.79-12.82q0-22.17,0-44.35a12.67,12.67,0,0,1,9.82-12.49,12.3,12.3,0,0,1,3-.34H544.1a12.72,12.72,0,0,1,12.46,10,12.34,12.34,0,0,1,.29,2.64v44.83a12.7,12.7,0,0,1-10.15,12.27A14,14,0,0,1,544,435Zm5-20.54h3c.49,0,.58-.13.41-.6-.27-.79-.55-1.58-.83-2.36q-5-14.12-10-28.21a.49.49,0,0,0-.52-.37h-7.5c-.32,0-.44.12-.44.44a6.87,6.87,0,0,1-.25,2.07c-1,3.08-2.09,6.11-3.15,9.17q-3.31,9.58-6.66,19.18c-.18.53-.07.68.5.68h5.24c.54,0,.64-.07.81-.58q1-3.25,2.09-6.52a.46.46,0,0,1,.53-.37q5.11,0,10.23,0a.55.55,0,0,1,.63.45c.73,2.17,1.49,4.33,2.23,6.51a.66.66,0,0,0,.74.52C523.93,414.41,524.91,414.43,525.88,414.43Zm13.32-12V391.1c0-.53-.05-.57-.58-.57H533c-.49,0-.53,0-.53.54v22.75c0,.56.08.64.66.64h5.36c.64,0,.68,0,.68-.68Zm.42-18.25a3.5,3.5,0,0,0-3.7-3.72,3.64,3.64,0,0,0-3.77,3.71,3.74,3.74,0,1,0,7.47,0Z" transform="translate(-485.04 -364.97)"/><path class="cls-1" d="M518,400.89c-1.32-4.15-2.67-8.24-3.85-12.39-.52,2.42-1.34,4.72-2.05,7.06-.51,1.68-1,3.38-1.57,5-.08.23,0,.31.22.3s.79,0,1.19,0Z" transform="translate(-485.04 -364.97)"/><path class="cls-1" d="M518,400.89H512c-.4,0-.8,0-1.19,0s-.3-.07-.22-.3c.6-1.65,1.06-3.35,1.57-5,.71-2.34,1.53-4.64,2.05-7.06C515.37,392.65,516.72,396.74,518,400.89Z" transform="translate(-485.04 -364.97)"/></svg>