<svg id="Layer_1" data-name="Layer 1" xmlns="http://www.w3.org/2000/svg" viewBox="0 0 71.78 70"><defs><style>.cls-1{fill:#343434;}</style></defs><path class="cls-1" d="M721.56,341.94v46.91a3.54,3.54,0,0,0-.19,1A12.72,12.72,0,0,1,711,400.21a5.73,5.73,0,0,0-1.16.19H661.26c0-.1-.11-.07-.17-.08-.48-.08-1-.15-1.44-.25A12.71,12.71,0,0,1,650,389.9a4.22,4.22,0,0,0-.19-1v-47a3,3,0,0,0,.19-1,12.71,12.71,0,0,1,10.3-10.3c.36-.06.5-.13,1.05-.19H710c.42.06.74.13,1.12.19a12.73,12.73,0,0,1,10.3,10.3A3.74,3.74,0,0,0,721.56,341.94Zm-18.85,19.19h0V346.24c0-.45-.05-.49-.49-.49h-5.63c-.54,0-.56,0-.56.56,0,2.95,0,5.89,0,8.84,0,.3-.06.39-.38.36a15.76,15.76,0,0,0-6.11.57,12.22,12.22,0,0,0-8.58,8.55,13.86,13.86,0,0,0-.35,5.55,11.33,11.33,0,0,0,1.56,4.79,10.94,10.94,0,0,0,7.05,4.94,18.09,18.09,0,0,0,6,.35,24.55,24.55,0,0,0,7.18-1.67c.46-.19.51-.27.49-.77,0-.92-.14-1.84-.14-2.76Zm-33.52,2.95v15.13c0,.59.08.67.66.67h5.26c.69,0,.76-.06.76-.76V348.91c0-.49-.12-.6-.61-.6h-5.39c-.61,0-.68.07-.68.68Z" transform="translate(-649.79 -330.4)"/><path class="cls-1" d="M696,367.8c0,2.07,0,4.14,0,6.21,0,.28-.06.42-.35.45a9.67,9.67,0,0,1-5-.47,5.16,5.16,0,0,1-2.83-3.08,8.48,8.48,0,0,1-.26-5.29,6.18,6.18,0,0,1,4.59-4.35,7.44,7.44,0,0,1,3.48-.14c.25,0,.37.12.37.42C696,363.64,696,365.72,696,367.8Z" transform="translate(-649.79 -330.4)"/></svg>