<svg id="Layer_1" data-name="Layer 1" xmlns="http://www.w3.org/2000/svg" viewBox="0 0 69.98 70"><defs><style>.cls-1{fill:#343434;}</style></defs><path class="cls-1" d="M543.93,560H474V490h70Zm-28.31-12.2a11.16,11.16,0,0,0,4.88,5.05,15,15,0,0,0,12.5.68,7.89,7.89,0,0,0,5.23-5.78c.92-4-.06-7.9-4-10.41a31.32,31.32,0,0,0-3.06-1.69c-1.29-.62-2.64-1.13-3.92-1.75a11,11,0,0,1-2.22-1.38,2.73,2.73,0,0,1-.81-3,2.59,2.59,0,0,1,2.2-2,4.14,4.14,0,0,1,4.27,1.52c.29.37.55.77.84,1.18l5.07-3.26a9.56,9.56,0,0,0-5.53-4.76,13.48,13.48,0,0,0-5.13-.45,8.66,8.66,0,0,0-8,6.18,9.07,9.07,0,0,0,3.38,10,38.69,38.69,0,0,0,4.38,2.41c1.47.74,3,1.35,4.45,2.12a3,3,0,0,1,1.72,3.31,3.15,3.15,0,0,1-2.54,2.55,6.88,6.88,0,0,1-7.47-2.44c-.33-.41-.62-.84-.94-1.27Zm-23.31.72a10,10,0,0,0,5.27,5.16,12.58,12.58,0,0,0,7.67.52,7.9,7.9,0,0,0,6.41-6.41,15.58,15.58,0,0,0,.35-3.4c0-7.12,0-14.24,0-21.36,0-.29,0-.57,0-.85h-6.54v1c0,7,0,14,0,21.05a10.89,10.89,0,0,1-.19,2.13,2.6,2.6,0,0,1-1.62,2,4,4,0,0,1-4.74-1.24c-.44-.56-.8-1.18-1.25-1.84Z" transform="translate(-473.95 -489.97)"/></svg>