<svg id="Layer_1" data-name="Layer 1" xmlns="http://www.w3.org/2000/svg" viewBox="0 0 154.19 154.19"><defs><style>.cls-1,.cls-2{fill:#493011;}.cls-1{stroke:#493011;stroke-miterlimit:10;stroke-width:0.57px;}</style></defs><path class="cls-1" d="M723,422.84h-17.2V365.39c-20.47,7.37-14.51,39.55-14.51,57.45H675c0-17.9,6.55-50.19-14.39-57.56v57.56h-17.2V345.62h20s14.51.12,14.51,38.61c0,10.06,1.28,15.09,5.26,17.67,3.51-2.58,5.27-7.61,5.27-17.67,0-38.38,14.5-38.61,14.5-38.61h20Z" transform="translate(-606.14 -307.14)"/><path class="cls-2" d="M683.23,461.33a77.1,77.1,0,1,1,77.1-77.1A77.18,77.18,0,0,1,683.23,461.33Zm0-145.69a68.59,68.59,0,1,0,68.59,68.59A68.67,68.67,0,0,0,683.23,315.64Z" transform="translate(-606.14 -307.14)"/></svg>