<svg id="Layer_1" data-name="Layer 1" xmlns="http://www.w3.org/2000/svg" viewBox="0 0 201.72 152.18"><path d="M683.28,335.82c-14.53,0-25.91-11.94-25.91-27.19l-.06-8.15V222.83c0-6.17-1.49-16.51-11.51-16.51s-11.51,10.34-11.51,16.51v81.28l-.1,4.65c-.06,15.19-11.42,27.06-25.91,27.06s-25.91-11.94-25.91-27.19V286.48h22.68v22.15c0,.75.15,4.51,3.23,4.51s3.23-3.76,3.23-4.51v-.24l.1-4.64V222.83c0-23.44,13.73-39.19,34.18-39.19S680,199.39,680,222.83V300.4l.06,8.15c0,.83.15,4.59,3.23,4.59s3.23-3.76,3.23-4.51v-85.8c0-23.44,13.74-39.19,34.19-39.19s34.19,15.75,34.19,39.19l.07,85.79c0,.76.15,4.52,3.23,4.52s3.23-3.76,3.23-4.51V286.48h22.68v22.15c0,15.25-11.38,27.19-25.91,27.19s-25.91-11.94-25.91-27.19l-.07-85.79c0-6.18-1.5-16.52-11.51-16.52s-11.51,10.34-11.51,16.51v85.76C709.19,323.88,697.81,335.82,683.28,335.82Z" transform="translate(-582.37 -183.64)"/></svg>