<svg id="Layer_1" data-name="Layer 1" xmlns="http://www.w3.org/2000/svg" viewBox="0 0 69.98 70"><defs><style>.cls-1{fill:#343434;}</style></defs><path class="cls-1" d="M474,392V361.78a4.71,4.71,0,0,1,4.77-4.81h60.45a4.65,4.65,0,0,1,4.76,4.77v60.45a4.67,4.67,0,0,1-4.79,4.77H478.73a4.72,4.72,0,0,1-4-2,4.4,4.4,0,0,1-.8-2.37c0-.21,0-.42,0-.63Zm31.74-12.45-.23-.2-13.23-12.72a1,1,0,0,0-.76-.3h-6.56c-.46,0-.46,0-.3.42q3.12,8.34,6.25,16.67a1,1,0,0,1,.06.56q-1.38,7.13-2.74,14.24l-3.66,19c-.07.34,0,.42.34.42h6.64a.52.52,0,0,0,.58-.41q6.75-17.55,13.52-35.11c0-.12,0-.28.22-.37a1.66,1.66,0,0,1,0,.24c-.23,1.3-.47,2.61-.71,3.91q-1.43,7.83-2.86,15.65t-2.86,15.72c-.06.32,0,.37.31.37h6.68c.34,0,.46-.11.57-.41q6.76-19.16,13.56-38.29c0-.1,0-.23.18-.31,0,.14,0,.25,0,.37l-.78,4.69q-1.23,7.33-2.47,14.69-1.57,9.44-3.16,18.88c-.06.34,0,.38.32.38h6.68a.47.47,0,0,0,.54-.39c1.22-3.81,2.47-7.61,3.7-11.41q5.09-15.65,10.18-31.29c.09-.28.08-.42-.21-.58L522,366.47a1.32,1.32,0,0,0-.67-.18H514.6c-.11,0-.26-.06-.33,0s.08.23.14.33c1.47,2.29,3,4.57,4.42,6.85l1.77,2.8-.06.06-.38-.27-13.06-9.58a1.18,1.18,0,0,0-.75-.24h-7c0,.17.08.27.13.38,1.41,2.88,2.84,5.76,4.25,8.64l2,4.13Z" transform="translate(-473.95 -356.97)"/></svg>