<svg id="Layer_1" data-name="Layer 1" xmlns="http://www.w3.org/2000/svg" viewBox="0 0 70 70"><defs><style>.cls-1{fill:#343434;}</style></defs><path class="cls-1" d="M543.94,495v28.14a6.77,6.77,0,0,1-5.37,6.68A7.15,7.15,0,0,1,537,530h-56.2a6.79,6.79,0,0,1-6.9-6.92V466.89a6.78,6.78,0,0,1,6.9-6.92H537a6.78,6.78,0,0,1,6.9,6.92ZM535,491v10.57c0,.59,0,.59.57.59.91,0,1.82,0,2.73,0,.42,0,.54-.12.54-.55,0-4.63,0-9.26,0-13.89,0-.57,0-.57-.58-.57H516.4a4.7,4.7,0,0,0,0,.47c0,4.68,0,9.36,0,14,0,.38.1.51.49.51,2.17,0,4.34,0,6.51,0,.57,0,.57,0,.57-.58V491h3.65v.48c0,3.39,0,6.77,0,10.16,0,.37.08.52.49.51.92,0,1.84,0,2.77,0,.57,0,.57,0,.57-.58V491Zm-29.75,11.16h7c.35,0,.48-.09.48-.46q0-7,0-14.07c0-.36-.1-.48-.47-.48H498.15c-.38,0-.47.12-.47.48q0,8.91,0,17.81c0,.38.15.46.5.46H503c.61,0,1.23,0,1.85,0,.34,0,.46-.1.45-.45,0-.93,0-1.85,0-2.77C505.26,502.48,505.27,502.32,505.28,502.12ZM490.21,491v.61c0,3.34,0,6.68,0,10,0,.38.08.54.51.53.95,0,1.9,0,2.86,0,.4,0,.49-.14.49-.51q0-7,0-14c0-.38-.1-.52-.52-.52h-14c-.43,0-.51.14-.51.53q0,7,0,13.94c0,.47.16.55.58.55,2.14,0,4.28,0,6.42,0,.58,0,.58,0,.58-.58v-10c0-.19,0-.37,0-.56Z" transform="translate(-473.94 -459.97)"/><path class="cls-1" d="M508.87,498.27h-3.59V491h3.59Z" transform="translate(-473.94 -459.97)"/></svg>