<?xml version="1.0" encoding="utf-8"?>
<!-- Generator: Adobe Illustrator 26.3.1, SVG Export Plug-In . SVG Version: 6.00 Build 0)  -->
<svg version="1.1" id="Layer_1" xmlns="http://www.w3.org/2000/svg" xmlns:xlink="http://www.w3.org/1999/xlink" x="0px" y="0px"
	 viewBox="0 0 70 70" style="enable-background:new 0 0 70 70;" xml:space="preserve">
<style type="text/css">
	.st0{fill:#1A1B1F;}
	.st1{fill:#493011;}
</style>
<path class="st0" d="M70,35v28.2c0,3.2-2.2,6-5.4,6.7c-0.5,0.1-1,0.2-1.6,0.2H6.9c-3.7,0-6.8-2.9-6.9-6.7V6.9C0,3.2,2.9,0.1,6.6,0
	h56.5C66.8-0.1,70,2.9,70,6.6c0,0,0,0,0,0v0.3V35z M61.1,31v10.6c0,0.6,0,0.6,0.6,0.6h2.7c0.4,0,0.5-0.1,0.5-0.5V27.7
	c0-0.6,0-0.6-0.6-0.6H42.5c0,0.2,0,0.3,0,0.5v14c0,0.4,0.1,0.5,0.5,0.5h6.5c0.6,0,0.6,0,0.6-0.6V31h3.7v10.7c0,0.4,0.1,0.5,0.5,0.5
	H57c0.6,0,0.6,0,0.6-0.6V31H61.1z M31.4,42.2h7c0.3,0,0.5-0.1,0.5-0.5V27.7c0-0.4-0.1-0.5-0.5-0.5H24.2c-0.4,0-0.5,0.1-0.5,0.5v17.8
	c0,0.4,0.1,0.5,0.5,0.5H31c0.3,0,0.5-0.1,0.5-0.5v-2.8C31.4,42.5,31.4,42.3,31.4,42.2L31.4,42.2z M16.3,31v10.6
	c0,0.4,0.1,0.5,0.5,0.5h2.9c0.4,0,0.5-0.1,0.5-0.5v-14c0-0.4-0.1-0.5-0.5-0.5h-14c-0.4,0-0.5,0.1-0.5,0.5v13.9
	c0,0.5,0.2,0.5,0.6,0.5h6.4c0.6,0,0.6,0,0.6-0.6V31H16.3z"/>
<path class="st1" d="M35,38.3h-3.6V31H35V38.3z"/>
</svg>
