<svg id="Layer_1" data-name="Layer 1" xmlns="http://www.w3.org/2000/svg" viewBox="0 0 71.87 70"><defs><style>.cls-1{fill:#343434;}</style></defs><path class="cls-1" d="M522.81,369.63c7.62,0,15.25,0,22.87,0a12.71,12.71,0,0,1,9.25,3.65,12.39,12.39,0,0,1,3.65,7.19,15.64,15.64,0,0,1,.14,2.27V427a12.71,12.71,0,0,1-9.85,12.33,12.57,12.57,0,0,1-2.87.33H499.56a12.74,12.74,0,0,1-12.71-12.73V382.34a12.71,12.71,0,0,1,10.81-12.58,11.71,11.71,0,0,1,1.77-.13ZM503,403.33v15.2c0,.51.07.59.56.59H509c.47,0,.57-.1.57-.56,0-3,0-6.05,0-9.07,0-.29.06-.39.38-.39,1.14,0,2.29.09,3.43,0a19.34,19.34,0,0,0,5.13-.8,9.84,9.84,0,0,0,6.23-5.27,11.28,11.28,0,0,0,.9-6.25,9.59,9.59,0,0,0-5.85-8.09,15.93,15.93,0,0,0-6.57-1.3c-3.18,0-6.36.13-9.54.16-.58,0-.6,0-.6.61Zm25.82,11.92v1.93c0,1.11,0,1.14,1.06,1.52a18.61,18.61,0,0,0,9.84.7,8.65,8.65,0,0,0,4.63-2.38c2.46-2.48,3-7.68-.89-10.28a19.17,19.17,0,0,0-3.19-1.71c-1.2-.51-2.46-.91-3.62-1.53a4.16,4.16,0,0,1-1.06-.75,1.32,1.32,0,0,1,.55-2.27,4.13,4.13,0,0,1,1.21-.24,15.26,15.26,0,0,1,4.66.5,10.15,10.15,0,0,1,2.19.82c.46.23.81.1.82-.3,0-1.62,0-3.24,0-4.86a.62.62,0,0,0-.49-.65c-.37-.11-.72-.28-1.1-.36a21.19,21.19,0,0,0-7-.45,9.53,9.53,0,0,0-4.59,1.66,6.83,6.83,0,0,0-.68,10.7,14.15,14.15,0,0,0,3.65,2.2c1.15.52,2.37.88,3.49,1.46a3.57,3.57,0,0,1,1.16.88,1.18,1.18,0,0,1,.18,1.33,1.61,1.61,0,0,1-1.19.88,9,9,0,0,1-3.1.18,14.77,14.77,0,0,1-5.91-1.75c-.48-.28-.61-.2-.61.38C528.83,413.65,528.84,414.45,528.84,415.25Z" transform="translate(-486.85 -369.63)"/><path class="cls-1" d="M509.57,398.41v-4.7c0-.2,0-.35.28-.34a33.53,33.53,0,0,1,4.7.08,5.66,5.66,0,0,1,3.29,1.46,4.56,4.56,0,0,1,1.27,3.59c-.11,2.49-1.28,3.88-3.8,4.58a17.47,17.47,0,0,1-5.44.36c-.27,0-.3-.14-.3-.36C509.58,401.52,509.57,400,509.57,398.41Z" transform="translate(-486.85 -369.63)"/></svg>