<svg id="Layer_1" data-name="Layer 1" xmlns="http://www.w3.org/2000/svg" viewBox="0 0 71.87 70.03"><defs><style>.cls-1{fill:#493011;}</style></defs><path class="cls-1" d="M36,0H58.83a12.72,12.72,0,0,1,9.25,3.65,12.39,12.39,0,0,1,3.65,7.19,15.64,15.64,0,0,1,.14,2.27V57.37A12.71,12.71,0,0,1,62,69.7a12.57,12.57,0,0,1-2.87.33H12.71A12.75,12.75,0,0,1,0,57.3V12.71A12.71,12.71,0,0,1,10.81.13,11.71,11.71,0,0,1,12.58,0ZM16.15,33.7V48.9c0,.51.07.59.56.59h5.44c.47,0,.57-.1.57-.56V39.86c0-.29.06-.39.38-.39,1.14,0,2.29.09,3.43,0a19,19,0,0,0,5.13-.8,9.83,9.83,0,0,0,6.23-5.27,11.28,11.28,0,0,0,.9-6.25,9.59,9.59,0,0,0-5.85-8.09,15.93,15.93,0,0,0-6.57-1.3c-3.18,0-6.36.13-9.54.16-.58,0-.6,0-.6.61ZM42,45.62v1.93c0,1.11,0,1.14,1.06,1.52a18.62,18.62,0,0,0,9.84.7,8.65,8.65,0,0,0,4.63-2.38c2.46-2.48,3-7.68-.89-10.28a19.58,19.58,0,0,0-3.19-1.71c-1.2-.51-2.46-.91-3.62-1.53a4.16,4.16,0,0,1-1.06-.75,1.32,1.32,0,0,1-.12-1.86,1.38,1.38,0,0,1,.67-.41,4.19,4.19,0,0,1,1.21-.24,15.26,15.26,0,0,1,4.66.5,10.15,10.15,0,0,1,2.19.82c.46.23.81.1.82-.3V26.77a.62.62,0,0,0-.49-.65c-.37-.11-.72-.28-1.1-.36a21.13,21.13,0,0,0-7-.45A9.59,9.59,0,0,0,45,27a6.82,6.82,0,0,0-1.73,9.5,6.65,6.65,0,0,0,1.05,1.2A14.15,14.15,0,0,0,48,39.87c1.15.52,2.37.88,3.49,1.46a3.57,3.57,0,0,1,1.16.88,1.18,1.18,0,0,1,.18,1.33,1.59,1.59,0,0,1-1.19.88,9,9,0,0,1-3.1.18,14.82,14.82,0,0,1-5.91-1.75c-.48-.28-.61-.2-.61.38,0,.79,0,1.59,0,2.39Z" transform="translate(0 0)"/><path class="cls-1" d="M22.72,28.78v-4.7c0-.2,0-.35.28-.34a33.5,33.5,0,0,1,4.7.08A5.69,5.69,0,0,1,31,25.28a4.55,4.55,0,0,1,1.27,3.59c-.11,2.49-1.28,3.88-3.8,4.58a17.45,17.45,0,0,1-5.44.36c-.27,0-.3-.14-.3-.36C22.73,31.89,22.72,30.37,22.72,28.78Z" transform="translate(0 0)"/></svg>