<?xml version="1.0" encoding="utf-8"?>
<!-- Generator: Adobe Illustrator 26.3.1, SVG Export Plug-In . SVG Version: 6.00 Build 0)  -->
<svg version="1.1" id="Layer_1" xmlns="http://www.w3.org/2000/svg" xmlns:xlink="http://www.w3.org/1999/xlink" x="0px" y="0px"
	 viewBox="0 0 71.9 70" style="enable-background:new 0 0 71.9 70;" xml:space="preserve">
<style type="text/css">
	.st0{fill:#1A1B1F;}
	.st1{fill:#493011;}
</style>
<path class="st0" d="M36,0h22.8c3.5-0.1,6.8,1.2,9.2,3.7c2,1.9,3.3,4.5,3.7,7.2c0.1,0.8,0.1,1.5,0.1,2.3v44.3c0,5.9-4.1,11-9.9,12.3
	c-0.9,0.2-1.9,0.3-2.9,0.3H12.7C5.7,70,0,64.3,0,57.3V12.7C0,6.4,4.6,1.1,10.8,0.1C11.4,0,12,0,12.6,0H36z M16.1,33.7v15.2
	c0,0.5,0.1,0.6,0.6,0.6h5.4c0.5,0,0.6-0.1,0.6-0.6v-9.1c0-0.3,0.1-0.4,0.4-0.4c1.1,0,2.3,0.1,3.4,0c1.7,0,3.5-0.3,5.1-0.8
	c2.7-0.8,5-2.7,6.2-5.3c0.9-2,1.2-4.1,0.9-6.2c-0.3-3.6-2.5-6.7-5.8-8.1c-2.1-0.9-4.3-1.3-6.6-1.3c-3.2,0-6.4,0.1-9.5,0.2
	c-0.6,0-0.6,0-0.6,0.6L16.1,33.7z M42,45.6v1.9c0,1.1,0,1.1,1.1,1.5c3.2,1.1,6.6,1.4,9.8,0.7c1.8-0.3,3.4-1.1,4.6-2.4
	c2.5-2.5,3-7.7-0.9-10.3c-1-0.7-2.1-1.2-3.2-1.7c-1.2-0.5-2.5-0.9-3.6-1.5c-0.4-0.2-0.7-0.4-1.1-0.8c-0.5-0.5-0.6-1.3-0.1-1.9
	c0.2-0.2,0.4-0.3,0.7-0.4c0.4-0.1,0.8-0.2,1.2-0.2c1.6-0.1,3.1,0.1,4.7,0.5c0.8,0.2,1.5,0.5,2.2,0.8c0.5,0.2,0.8,0.1,0.8-0.3v-4.9
	c0-0.3-0.2-0.6-0.5-0.6c-0.4-0.1-0.7-0.3-1.1-0.4c-2.3-0.5-4.7-0.7-7-0.5C48,25.5,46.4,26,45,27c-3.1,2.1-3.9,6.4-1.7,9.5
	c0,0,0,0,0,0c0.3,0.4,0.7,0.8,1,1.2c1.1,0.9,2.4,1.6,3.7,2.2c1.2,0.5,2.4,0.9,3.5,1.5c0.4,0.2,0.8,0.5,1.2,0.9
	c0.3,0.4,0.4,0.9,0.2,1.3c-0.2,0.5-0.7,0.8-1.2,0.9c-1,0.2-2.1,0.3-3.1,0.2c-2.1-0.2-4.1-0.8-5.9-1.8c-0.5-0.3-0.6-0.2-0.6,0.4
	C42,44,42,44.8,42,45.6L42,45.6z"/>
<path class="st1" d="M22.7,28.8v-4.7c0-0.2,0-0.4,0.3-0.3c1.6-0.1,3.1-0.1,4.7,0.1c1.2,0.1,2.4,0.6,3.3,1.5c0.9,1,1.4,2.3,1.3,3.6
	c-0.1,2.5-1.3,3.9-3.8,4.6c-1.8,0.4-3.6,0.5-5.4,0.4c-0.3,0-0.3-0.1-0.3-0.4C22.7,31.9,22.7,30.4,22.7,28.8z"/>
</svg>
