<svg id="Layer_1" data-name="Layer 1" xmlns="http://www.w3.org/2000/svg" viewBox="0 0 71.74 70"><defs><style>.cls-1{fill:#343434;}</style></defs><path class="cls-1" d="M529,463.28h22.89a12.62,12.62,0,0,1,12.77,10.81,14.09,14.09,0,0,1,.13,2.25q0,22,0,44a12.56,12.56,0,0,1-12.94,12.93H506a12.6,12.6,0,0,1-12.79-10.76,12.4,12.4,0,0,1-.14-2q0-22.23,0-44.46a12.56,12.56,0,0,1,12.66-12.73C513.5,463.24,521.26,463.28,529,463.28ZM510.12,497c0,5,0,9.92,0,14.88,0,.69.21.9.88.88,1.56,0,3.12,0,4.67,0,.71,0,1-.2.94-.93,0-2.78,0-5.56,0-8.33,0-.63.2-.78.8-.79,1.81,0,3.63,0,5.43-.16a11.2,11.2,0,0,0,7-3.15c2.44-2.44,3.08-5.47,2.79-8.74a9.42,9.42,0,0,0-3.88-7.08,14.11,14.11,0,0,0-8.53-2.45c-3.06,0-6.13.12-9.19.14-.71,0-.92.21-.91.93C510.14,487.1,510.12,492,510.12,497Zm33.08-5.09c-.13-.83-.24-1.57-.37-2.31a.86.86,0,0,0-1-.79h-4.67c-.45,0-.58.17-.55.61.09,1.89.19,3.78.2,5.68q0,8.35,0,16.73c0,.73.23.95.93.94,1.61,0,3.22-.05,4.83,0,.75,0,1-.22,1-1,0-4.56,0-9.13-.05-13.7a1.84,1.84,0,0,1,1.09-1.85,8.09,8.09,0,0,1,.84-.4,13,13,0,0,1,5.09-1c.56,0,.78-.2.77-.77,0-1.66,0-3.33,0-5,0-.67-.27-.85-.89-.8a9.94,9.94,0,0,0-5.57,2.16C544.29,490.86,543.79,491.35,543.2,491.87Z" transform="translate(-493.08 -463.27)"/><path class="cls-1" d="M516.61,492c0-1.43,0-2.85,0-4.28,0-.55.12-.8.73-.77a42.33,42.33,0,0,1,4.65.2c3.19.5,4.74,2.86,4.14,6a4.26,4.26,0,0,1-2.68,3.21c-2.06.91-4.25.79-6.43.7-.14,0-.38-.37-.38-.58,0-1.5,0-3,0-4.51Z" transform="translate(-493.08 -463.27)"/></svg>