<svg id="Layer_1" data-name="Layer 1" xmlns="http://www.w3.org/2000/svg" viewBox="0 0 78.46 70.01"><defs><style>.cls-1{fill:#493011;}</style></defs><path class="cls-1" d="M26.47,69.55l-2,.38a10.63,10.63,0,0,1-2.11,0,10.62,10.62,0,0,1-2-.49.24.24,0,0,0-.22-.09,10.67,10.67,0,0,1-2-1.48c-.19-.22-.29-.53-.6-.64A14.33,14.33,0,0,1,15.79,63l-.39-2.11-.14-2.1V56.7l.11-2.1.24-2.11.36-2.1a1,1,0,0,0,.06-.48c.2-.49.21-1,.37-1.52.07-.23-.1-.26-.25-.31l-2.24-.74-2.09-.8-.94-.39a5.64,5.64,0,0,0-1.17-.54l-2-1a3.67,3.67,0,0,0-.88-.51l-1.34-.88L5.21,43a14.38,14.38,0,0,1-4.7-5.22A10.26,10.26,0,0,1,0,35.66a8.78,8.78,0,0,1,.13-2.11,10.59,10.59,0,0,1,.84-2.1l.35-.6,1.22-1.51.87-.87,1.5-1.24a2.26,2.26,0,0,0,.62-.44c1.36-.88,2.77-1.68,4.21-2.42l4.22-1.76L16,21.9c.28,0,.33-.17.27-.42-.19-.9-.37-1.8-.56-2.7l-.3-2.09-.21-2.12-.08-2.1v-2.1l.25-2.11.46-2.12A.86.86,0,0,0,16,5.67L16.71,4A7.58,7.58,0,0,1,20.22.6a9.62,9.62,0,0,1,6-.09h.26l2.11.74a45.23,45.23,0,0,1,4.22,2.29l.71.46L34.9,5c1.33,1,2.62,2.13,3.9,3.24.14.2.28.37.54.12C40.6,7.13,42,6.07,43.34,5A9.06,9.06,0,0,0,44.64,4a2.94,2.94,0,0,0,.81-.54A47.78,47.78,0,0,1,49.68,1.2l2.1-.75L53.89,0a10.68,10.68,0,0,1,3.24.23,6.72,6.72,0,0,1,4,3.16l.39.62.74,1.84.07.28.48,2.09L63,10.34l.06,2.1L63,14.56a16.55,16.55,0,0,0-.2,2.11l-.31,2.1c-.19.92-.36,1.84-.57,2.75-.08.36.16.3.34.35l2.12.7,4.08,1.7a44.54,44.54,0,0,1,4.35,2.5l.63.44,1.46,1.2.94.92L77,30.81l.38.64a10.55,10.55,0,0,1,.83,2.1,8.51,8.51,0,0,1,.14,2.08,11.32,11.32,0,0,1-.59,2.12,12.18,12.18,0,0,1-1.34,2.14,19.5,19.5,0,0,1-3.64,3.33l-1.28.84-.81.46c-1.38.76-2.81,1.39-4.23,2.07l-2.12.8-1.44.47c-1,.35-1,.35-.67,1.44a4.18,4.18,0,0,0,.2,1.11l.35,2.1.23,2.1.13,2.12v2.1L63,60.94,62.64,63a12.55,12.55,0,0,1-1.85,4.22l-.44.71a9,9,0,0,1-2,1.39.07.07,0,0,0-.09,0,11.12,11.12,0,0,1-2.12.52l-2.09-.06-2.12-.45-.25-.05-1.86-.7-2.1-1-.65-.34-1.46-.91c-1.45-1-2.84-2-4.21-3.12l-.22-.19-1.62-1.47c-.13-.11-.25-.22-.38,0l-1.63,1.46a.91.91,0,0,0-.38.32c-1.38,1.09-2.78,2.15-4.23,3.14a7,7,0,0,0-1.19.75,3.57,3.57,0,0,0-.92.5l-2.09,1-1.61.61ZM39.29,13.7c-.44.14-.62.55-.9.85a10.65,10.65,0,0,0-1.23,1.37,3.22,3.22,0,0,0-.63.75,20.37,20.37,0,0,0-1.66,2l2.3-.11a10.63,10.63,0,0,0,2.11,0l2.1.05h2.23A52.61,52.61,0,0,0,40,14.49a4.56,4.56,0,0,0-.73-.79Zm10.53,5.5,2.11.3,2.11.33,2.1.41,2.11.45c.2.12.38.2.44-.15A13.12,13.12,0,0,0,59,18.79a12.67,12.67,0,0,0,.35-2.12,18.72,18.72,0,0,0,.23-2.1,13.62,13.62,0,0,0,.08-2.12,10.54,10.54,0,0,0-.06-2.1,9.41,9.41,0,0,0-.29-2.11,8.34,8.34,0,0,0-.91-2.78,3.26,3.26,0,0,0-3-1.88,8.67,8.67,0,0,0-3.48.68,10.25,10.25,0,0,0-2.11,1,7.79,7.79,0,0,0-1.61.92,1.24,1.24,0,0,0-.5.31A28.83,28.83,0,0,0,43.49,9.6a4,4,0,0,0-.85.74c-.2.17-.39.35-.6.5s-.17.29,0,.46l3,3.27a4.11,4.11,0,0,0,.63.75l1.07,1.35,1,1.32.58.79c.08.16.16.3.37.32Zm-21.08,0c.26,0,.51,0,.77-.06s.64.05.77-.35a3.86,3.86,0,0,0,.58-.81,10,10,0,0,0,.93-1.21c1.52-1.86,3-3.72,4.7-5.45.14-.15.2-.26,0-.43a38.47,38.47,0,0,0-5.64-4.37,2.07,2.07,0,0,0-.63-.39,7.51,7.51,0,0,0-1.49-.84,9.07,9.07,0,0,0-2.11-.94,8.63,8.63,0,0,0-3.2-.73A3.36,3.36,0,0,0,19.93,5.8a13.18,13.18,0,0,0-1,4.55,9.33,9.33,0,0,0-.08,2.11,10.66,10.66,0,0,0,.1,2.11,12.48,12.48,0,0,0,.22,2.11,14.82,14.82,0,0,0,.34,2.1c.1.56.22,1.12.32,1.69,0,.31.19.43.49.25l2.1-.47,2.11-.42,2.11-.33ZM33,22.48c-.46,0-1-.13-1.18.51a41.58,41.58,0,0,0-2.71,4.23,1.66,1.66,0,0,0-.34.59,9.72,9.72,0,0,0-.88,1.49,20.61,20.61,0,0,0-1.15,2.12l-.06.14a14.93,14.93,0,0,0-1,2,8.25,8.25,0,0,1-.45.89,1,1,0,0,0,.09,1.33,41.32,41.32,0,0,0,2.08,4.09,45.88,45.88,0,0,0,2.5,4.22,9,9,0,0,0,1,1.51,1.8,1.8,0,0,0,.38.6c.12.2.26.38.36.58a1.16,1.16,0,0,0,1.37.77,14.85,14.85,0,0,0,2.11.12,12.42,12.42,0,0,0,2.11.09h4.17a10.66,10.66,0,0,0,2.11-.1,12.33,12.33,0,0,0,2.1-.12c.39,0,.82.12,1.1-.3l.68-1a1.51,1.51,0,0,0,.34-.52,11.82,11.82,0,0,0,1-1.59,45.25,45.25,0,0,0,2.45-4.21c.42-.78.86-1.55,1.25-2.34a9.17,9.17,0,0,0,.87-1.88c.18-.28.47-.53.28-.92l-.61-1.19a14.93,14.93,0,0,0-1-2,.09.09,0,0,0,0-.07,19.51,19.51,0,0,0-1.23-2.24,7.37,7.37,0,0,0-.86-1.46,1.24,1.24,0,0,0-.31-.53,18.83,18.83,0,0,0-1.3-2.1l-.49-.74a9.26,9.26,0,0,0-.93-1.38c-.19-.64-.71-.52-1.19-.51a10.54,10.54,0,0,0-2.1-.13,10.65,10.65,0,0,0-2.11-.08,14.86,14.86,0,0,0-2.11,0c-1.41,0-2.81,0-4.22.12a10.72,10.72,0,0,0-2.12,0ZM42,58.75c-.22.14,0,.23,0,.31l1.43,1.24a4,4,0,0,0,.81.66,7.38,7.38,0,0,0,1.3,1,23.1,23.1,0,0,0,4.21,2.68A12.27,12.27,0,0,0,54,66.19a5.05,5.05,0,0,0,2.12,0,2.34,2.34,0,0,0,1.81-1.07.78.78,0,0,0,.3-.41A5,5,0,0,0,59,63a7.72,7.72,0,0,0,.46-2.13,9.32,9.32,0,0,0,.2-2.11,14.72,14.72,0,0,0,0-2.1,12.64,12.64,0,0,0-.14-2.13,14.75,14.75,0,0,0-.27-2.09,12.57,12.57,0,0,0-.39-2.12,5.91,5.91,0,0,0-.16-.92c-.05-.31-.22-.4-.49-.22l-2.12.46-4.22.76-2.1.27-.94.09a.67.67,0,0,0-.58.29c-.87,1.17-1.76,2.32-2.64,3.48l-.06.09-1.72,2-.38.44Zm-5.37.09-1.58-1.71a1.07,1.07,0,0,0-.34-.39L33,54.63l-2.6-3.47a.65.65,0,0,0-.52-.3l-1-.1-2.1-.27-4.22-.74-2.16-.48c-.21-.09-.4-.17-.44.18s-.11.64-.17,1a12.44,12.44,0,0,0-.35,2.1,11.75,11.75,0,0,0-.29,2.12,11.34,11.34,0,0,0-.13,2.1,7.46,7.46,0,0,0,0,2.11A8,8,0,0,0,19.15,61a7.51,7.51,0,0,0,.46,2.1,4.65,4.65,0,0,0,.71,1.63,1.49,1.49,0,0,0,.42.6,2.53,2.53,0,0,0,1.7,1,4.7,4.7,0,0,0,2.11,0,6,6,0,0,0,2.11-.63A3.19,3.19,0,0,0,28,65.2a2.55,2.55,0,0,0,.83-.4A22.88,22.88,0,0,0,33,62.11,8.88,8.88,0,0,0,34.43,61a2.34,2.34,0,0,0,.66-.55l1.57-1.36c0-.09.12-.09,0-.22Zm2.62-2.55a7.68,7.68,0,0,0,1.61-1.66,1.83,1.83,0,0,0,.49-.55,12.86,12.86,0,0,0,1.3-1.55l1.07-1.28-2.36.12H37.17a15.94,15.94,0,0,0-2.29-.08l1,1.22A13.78,13.78,0,0,0,37.14,54l.55.62a13.2,13.2,0,0,0,1.59,1.67Zm20.62-27-.79,2.13-.84,2.1a.06.06,0,0,0,0,.08l-.46,1a.6.6,0,0,0-.06.58c.39.86.75,1.72,1.12,2.59l.81,2.09.7,1.94a.36.36,0,0,0,.09.3l.64,2c.09.21-.06.67.38.54a23.18,23.18,0,0,0,3.24-1.17,10.36,10.36,0,0,0,2-.85A5.6,5.6,0,0,0,68,42a2.88,2.88,0,0,0,.83-.44,16.29,16.29,0,0,0,4.22-3,2.63,2.63,0,0,0,.63-.66,4.44,4.44,0,0,0,1.25-2.22,2.56,2.56,0,0,0-.28-2.12,6.22,6.22,0,0,0-1.6-2.1A10.42,10.42,0,0,0,71,29.76a1.81,1.81,0,0,0-.62-.41,9.13,9.13,0,0,0-1.47-.89,13.83,13.83,0,0,0-2-1,.81.81,0,0,0-.49-.21,7.41,7.41,0,0,0-1.74-.74,12.76,12.76,0,0,0-2.09-.77c-.31-.11-.63-.22-.93-.34s-.41-.06-.49.25c-.13.54-.31,1.07-.47,1.6a3.38,3.38,0,0,0-.25.82,7.84,7.84,0,0,0-.5,1.24ZM5.55,31.42A5.86,5.86,0,0,0,4,33.52a2.58,2.58,0,0,0-.3,2.11,4.33,4.33,0,0,0,1.16,2.1,2.9,2.9,0,0,0,.71.77,17,17,0,0,0,4.23,3,2.46,2.46,0,0,0,.83.44,5.64,5.64,0,0,0,1.28.63,14.19,14.19,0,0,0,2.08.9,26.1,26.1,0,0,0,2.81,1c.63.21.63.2.79-.44l.65-2.11v-.06a18.44,18.44,0,0,0,.72-2l.76-2c.38-.89.75-1.77,1.14-2.65a.51.51,0,0,0,0-.45c-.18-.36-.34-.72-.51-1.09l-.07-.19-.85-2.09-1.52-4.22c-.07-.26-.14-.53-.22-.8-.36-1.22-.36-1.22-1.59-.71a15.51,15.51,0,0,0-2.1.77,9,9,0,0,0-1.72.73l-.39.15a16.9,16.9,0,0,0-2.12,1.08,9.22,9.22,0,0,0-1.48.89,2,2,0,0,0-.62.42,10.15,10.15,0,0,0-2.08,1.79ZM56.77,27.2a13.91,13.91,0,0,0,.68-2.1c.31-.8.31-.8-.49-1l-.82-.17a15,15,0,0,0-2.1-.42c-.92-.21-1.86-.36-2.9-.5l1.35,2.07,2.41,4.21a6.82,6.82,0,0,0,.68,1.28L56,29.29a.65.65,0,0,0,.13-.38,10,10,0,0,0,.61-1.69Zm-35,0A12,12,0,0,0,22.43,29a.33.33,0,0,0,.11.28,7.93,7.93,0,0,0,.51,1.33l.65-1.34,2.41-4.21.56-.93A6.05,6.05,0,0,0,27.36,23a1.68,1.68,0,0,0-.7.13,11.6,11.6,0,0,0-2.11.34,18.75,18.75,0,0,0-2.11.42l-.91.19c-.74.16-.74.17-.49.86a.31.31,0,0,0,.05.1,16.13,16.13,0,0,0,.65,2.15ZM53,44.05l-1.77,2.81a1.63,1.63,0,0,0,.73-.08A37.84,37.84,0,0,0,56.18,46l1.32-.26c.21,0,.3-.14.22-.36-.17-.47-.32-1-.48-1.42-.36-1.33-.88-2.6-1.34-3.9a.61.61,0,0,0-.41-.36c-.11,0-.21.19-.29.33l-1,1.94-.13.28A15.14,15.14,0,0,0,53,44.08Zm-27.38,0-1.06-1.81L24.35,42,23,39.37c-.61,1.64-1.22,3.16-1.63,4.73-.68,1.6-.61,1.72,1,1.93a35.79,35.79,0,0,0,4.23.79,2.31,2.31,0,0,0,.74.09Z" transform="translate(0.07 0.03)"/><path class="cls-1" d="M32.46,37.75a10.85,10.85,0,0,1-.49-2.1,11.23,11.23,0,0,1,.11-2.09,10,10,0,0,1,.76-2.13l.12-.2a10.74,10.74,0,0,1,1.61-1.89l.49-.36a7.63,7.63,0,0,1,6.33-1,11.32,11.32,0,0,1,2,1l.58.43a11.36,11.36,0,0,1,1.63,1.9.21.21,0,0,0,.11.19,13.28,13.28,0,0,1,.76,2.11,11.48,11.48,0,0,1,.1,2.11,9.45,9.45,0,0,1-.5,2.1l-.46,1L44.77,40l-1.28,1-1.84,1-.27.05a10,10,0,0,1-2.1.31A11.43,11.43,0,0,1,37.19,42L36.9,42A17.53,17.53,0,0,1,35.07,41l-1.29-1.15L33,38.78Z" transform="translate(0.07 0.03)"/></svg>