<svg id="Layer_1" data-name="Layer 1" xmlns="http://www.w3.org/2000/svg" viewBox="0 0 78.58 70"><defs><style>.cls-1{fill:#343434;}</style></defs><path class="cls-1" d="M547.12,474.58l-2,.38a10.63,10.63,0,0,1-2.11,0,10.92,10.92,0,0,1-2-.49.24.24,0,0,0-.22-.09,10.49,10.49,0,0,1-2-1.48c-.19-.22-.29-.53-.6-.64a14.22,14.22,0,0,1-1.75-4.2l-.39-2.11-.14-2.1v-2.12l.11-2.1.24-2.11.36-2.1a1,1,0,0,0,.06-.48c.2-.49.21-1,.37-1.52.07-.23-.1-.26-.25-.31l-2.24-.74-2.09-.8-.94-.39a5.64,5.64,0,0,0-1.17-.54l-2-1a3.67,3.67,0,0,0-.88-.51l-1.34-.88-.28-.23a14.37,14.37,0,0,1-4.7-5.22,10.26,10.26,0,0,1-.56-2.11,8.78,8.78,0,0,1,.13-2.11,10.59,10.59,0,0,1,.84-2.1l.35-.6,1.22-1.51.87-.87,1.5-1.24a2.06,2.06,0,0,0,.62-.44c1.36-.88,2.77-1.68,4.21-2.42l4.22-1.76,2.13-.71c.28,0,.33-.17.27-.42-.19-.9-.37-1.8-.56-2.7l-.3-2.09-.21-2.12-.08-2.1,0-2.1.25-2.11.46-2.12a.86.86,0,0,0,.14-.47l.7-1.64a7.58,7.58,0,0,1,3.51-3.43,9.56,9.56,0,0,1,6-.09l.26,0,2.11.74a45.23,45.23,0,0,1,4.22,2.29l.71.46,1.38,1c1.33,1,2.62,2.13,3.9,3.24.14.2.28.37.54.12,1.26-1.23,2.65-2.29,4-3.41a9.06,9.06,0,0,0,1.3-.93,2.94,2.94,0,0,0,.81-.54,46.61,46.61,0,0,1,4.23-2.28l2.1-.75,2.11-.44a10.7,10.7,0,0,1,3.24.23,6.7,6.7,0,0,1,4,3.16l.39.62.74,1.84.07.28.48,2.09.22,2.11.06,2.1-.08,2.12a16.38,16.38,0,0,0-.2,2.11l-.31,2.1c-.19.92-.36,1.84-.57,2.75-.08.36.16.3.34.35l2.12.7,4.08,1.7a44.54,44.54,0,0,1,4.35,2.5l.63.44,1.46,1.2.94.92,1.18,1.48.38.64a10.93,10.93,0,0,1,.83,2.1,8.54,8.54,0,0,1,.14,2.08,11.11,11.11,0,0,1-.59,2.12,12.56,12.56,0,0,1-1.34,2.14,19.85,19.85,0,0,1-3.64,3.33l-1.28.84-.81.46c-1.38.76-2.81,1.39-4.23,2.07l-2.12.8-1.44.47c-1,.35-1,.35-.67,1.44a4.18,4.18,0,0,0,.2,1.11l.35,2.1.23,2.1.13,2.12v2.1l-.14,2.11-.39,2.1a12.55,12.55,0,0,1-1.85,4.22L581,473a9.18,9.18,0,0,1-2,1.39.09.09,0,0,0-.09,0,11.12,11.12,0,0,1-2.12.52l-2.09-.06-2.12-.45-.25-.05-1.86-.7-2.1-1-.65-.34-1.46-.91c-1.45-1-2.84-2-4.21-3.12l-.22-.19-1.62-1.47c-.13-.11-.25-.22-.38,0l-1.63,1.46a.91.91,0,0,0-.38.32c-1.38,1.09-2.78,2.15-4.23,3.14a6.43,6.43,0,0,0-1.19.75,3.57,3.57,0,0,0-.92.5l-2.09,1-1.61.61Zm12.82-55.85c-.44.14-.62.55-.9.85a11.45,11.45,0,0,0-1.23,1.37,3.26,3.26,0,0,0-.63.75,20.21,20.21,0,0,0-1.66,2.05l2.3-.11a10.63,10.63,0,0,0,2.11,0l2.1.05h2.23a53.19,53.19,0,0,0-3.59-4.17A4.38,4.38,0,0,0,559.94,418.73Zm10.53,5.5,2.11.3,2.11.33,2.1.41,2.11.45c.2.12.38.2.44-.15a12.84,12.84,0,0,0,.32-1.75,12.67,12.67,0,0,0,.35-2.12,18.47,18.47,0,0,0,.23-2.1,13.62,13.62,0,0,0,.08-2.12,10.54,10.54,0,0,0-.06-2.1,9.41,9.41,0,0,0-.29-2.11,8.26,8.26,0,0,0-.91-2.78,3.26,3.26,0,0,0-3-1.88,8.67,8.67,0,0,0-3.48.68,10.25,10.25,0,0,0-2.11.95,7.79,7.79,0,0,0-1.61.92,1.2,1.2,0,0,0-.5.31,28.31,28.31,0,0,0-4.22,3.16,4,4,0,0,0-.85.74c-.2.17-.39.35-.6.5s-.17.29,0,.46l3,3.27a4.11,4.11,0,0,0,.63.75l1.07,1.35,1,1.32.58.79c.08.16.16.3.37.32Zm-21.08,0a6.83,6.83,0,0,0,.77-.06c.28-.05.64.05.77-.35a3.86,3.86,0,0,0,.58-.81,9,9,0,0,0,.93-1.21c1.52-1.86,3-3.72,4.7-5.45.14-.15.2-.26,0-.43a38.63,38.63,0,0,0-5.64-4.37,2.15,2.15,0,0,0-.63-.39,7.81,7.81,0,0,0-1.49-.84,9.26,9.26,0,0,0-2.11-.94,8.63,8.63,0,0,0-3.2-.73,3.36,3.36,0,0,0-3.49,2.18,13.07,13.07,0,0,0-1,4.55,9.33,9.33,0,0,0-.08,2.11,10.63,10.63,0,0,0,.1,2.11,12.48,12.48,0,0,0,.22,2.11,14.82,14.82,0,0,0,.34,2.1c.1.56.22,1.12.32,1.69,0,.31.19.43.49.25l2.1-.47,2.11-.42,2.11-.33Zm4.21,3.28c-.46,0-1-.13-1.18.51a41.58,41.58,0,0,0-2.71,4.23,1.66,1.66,0,0,0-.34.59,9.26,9.26,0,0,0-.88,1.49,21.71,21.71,0,0,0-1.15,2.12l-.06.14a15.4,15.4,0,0,0-1,2,9.27,9.27,0,0,1-.45.89,1,1,0,0,0,.09,1.33A41.89,41.89,0,0,0,548,444.9a45.88,45.88,0,0,0,2.5,4.22,8.88,8.88,0,0,0,1,1.51,1.8,1.8,0,0,0,.38.6c.12.2.26.38.36.58a1.16,1.16,0,0,0,1.37.77,13.58,13.58,0,0,0,2.11.12,12.42,12.42,0,0,0,2.11.09H562a10.66,10.66,0,0,0,2.11-.1,12.33,12.33,0,0,0,2.1-.12c.39,0,.82.12,1.1-.3l.68-1a1.51,1.51,0,0,0,.34-.52,12,12,0,0,0,1-1.59,46.59,46.59,0,0,0,2.45-4.21c.42-.78.86-1.55,1.25-2.34a9.17,9.17,0,0,0,.87-1.88c.18-.28.47-.53.28-.92l-.61-1.19a14.39,14.39,0,0,0-1-2,.09.09,0,0,0,0-.07,20.22,20.22,0,0,0-1.23-2.24,7.89,7.89,0,0,0-.86-1.46,1.24,1.24,0,0,0-.31-.53,19.79,19.79,0,0,0-1.3-2.1l-.49-.74a9.26,9.26,0,0,0-.93-1.38c-.19-.64-.71-.52-1.19-.51a10.54,10.54,0,0,0-2.1-.13,10.65,10.65,0,0,0-2.11-.08,13.52,13.52,0,0,0-2.11,0,74.31,74.31,0,0,0-4.22.12A10.63,10.63,0,0,0,553.6,427.51Zm9.08,36.27c-.22.14,0,.23,0,.31l1.43,1.24a4,4,0,0,0,.81.66,7.49,7.49,0,0,0,1.3,1,23.1,23.1,0,0,0,4.21,2.68,12.2,12.2,0,0,0,4.22,1.55,4.89,4.89,0,0,0,2.12,0,2.34,2.34,0,0,0,1.81-1.07.78.78,0,0,0,.3-.41,5,5,0,0,0,.78-1.69,7.72,7.72,0,0,0,.46-2.13,9.32,9.32,0,0,0,.2-2.11,14.72,14.72,0,0,0,0-2.1,12.64,12.64,0,0,0-.14-2.13,13.43,13.43,0,0,0-.27-2.09,11.81,11.81,0,0,0-.39-2.12c0-.31-.11-.61-.16-.92s-.22-.4-.49-.22l-2.12.46-4.22.76-2.1.27-.94.09a.69.69,0,0,0-.58.29c-.87,1.17-1.76,2.32-2.64,3.48l-.06.09-1.72,2-.38.44Zm-5.37.09-1.58-1.71a1.07,1.07,0,0,0-.34-.39l-1.79-2.11L551,456.19a.64.64,0,0,0-.52-.3l-1-.1-2.1-.27-4.22-.74L541,454.3c-.21-.09-.4-.17-.44.18s-.11.64-.17,1a12.61,12.61,0,0,0-.35,2.1,11.75,11.75,0,0,0-.29,2.12,11.4,11.4,0,0,0-.13,2.1,7.46,7.46,0,0,0,0,2.11,7.94,7.94,0,0,0,.18,2.12,7.59,7.59,0,0,0,.46,2.1,4.65,4.65,0,0,0,.71,1.63,1.42,1.42,0,0,0,.42.6,2.56,2.56,0,0,0,1.7,1,4.56,4.56,0,0,0,2.11,0,6,6,0,0,0,2.11-.63,3.19,3.19,0,0,0,1.29-.5,2.65,2.65,0,0,0,.83-.4,22.88,22.88,0,0,0,4.2-2.69,8.88,8.88,0,0,0,1.45-1.14,2.34,2.34,0,0,0,.66-.55l1.57-1.36C557.34,464,557.43,464,557.31,463.87Zm2.62-2.55a7.92,7.92,0,0,0,1.61-1.66,1.85,1.85,0,0,0,.49-.55,13.68,13.68,0,0,0,1.3-1.55l1.07-1.28-2.36.12-2.11,0-2.11,0a16.8,16.8,0,0,0-2.29-.08l1,1.22a13.78,13.78,0,0,0,1.26,1.49l.55.62A13,13,0,0,0,559.93,461.32Zm20.62-27-.79,2.13-.84,2.1a.07.07,0,0,0,0,.08c-.15.33-.3.66-.46,1a.62.62,0,0,0-.06.58c.39.86.75,1.72,1.12,2.59l.81,2.09.7,1.94a.36.36,0,0,0,.09.3l.64,2c.09.21-.06.67.38.54a23.18,23.18,0,0,0,3.24-1.17,10.28,10.28,0,0,0,2-.85,5.6,5.6,0,0,0,1.28-.62,2.65,2.65,0,0,0,.83-.44,16.53,16.53,0,0,0,4.22-3,2.63,2.63,0,0,0,.63-.66,4.49,4.49,0,0,0,1.25-2.22,2.56,2.56,0,0,0-.28-2.12,6.22,6.22,0,0,0-1.6-2.1,10.49,10.49,0,0,0-2.11-1.7,1.81,1.81,0,0,0-.62-.41,8.85,8.85,0,0,0-1.47-.89,13.49,13.49,0,0,0-2-1,.81.81,0,0,0-.49-.21,7.41,7.41,0,0,0-1.74-.74,13.1,13.1,0,0,0-2.09-.77c-.31-.11-.63-.22-.93-.34s-.41-.06-.49.25c-.13.54-.31,1.07-.47,1.6a3.38,3.38,0,0,0-.25.82A7.49,7.49,0,0,0,580.55,434.34Zm-54.35,2.13a5.77,5.77,0,0,0-1.59,2.1,2.57,2.57,0,0,0-.3,2.11,4.37,4.37,0,0,0,1.16,2.1,3.07,3.07,0,0,0,.71.77,16.83,16.83,0,0,0,4.23,3,2.46,2.46,0,0,0,.83.44,5.64,5.64,0,0,0,1.28.63,14.19,14.19,0,0,0,2.08.9c.92.4,1.86.71,2.81,1,.63.21.63.2.79-.44l.65-2.11s0,0,0-.06a18.44,18.44,0,0,0,.72-2.05l.76-2c.38-.89.75-1.77,1.14-2.65a.54.54,0,0,0,0-.45c-.18-.36-.34-.72-.51-1.09l-.07-.19-.85-2.09-1.52-4.22c-.07-.26-.14-.53-.22-.8-.36-1.22-.36-1.22-1.59-.71a15.51,15.51,0,0,0-2.1.77,8.72,8.72,0,0,0-1.72.73l-.39.15a16.9,16.9,0,0,0-2.12,1.08,8.94,8.94,0,0,0-1.48.89,2,2,0,0,0-.62.42A9.79,9.79,0,0,0,526.2,436.47Zm51.22-4.22a14.28,14.28,0,0,0,.68-2.1c.31-.8.31-.8-.49-1l-.82-.17a16.6,16.6,0,0,0-2.1-.42c-.92-.21-1.86-.36-2.9-.5l1.35,2.07,2.41,4.21a7.22,7.22,0,0,0,.68,1.28l.45-1.28a.65.65,0,0,0,.13-.38A9.79,9.79,0,0,0,577.42,432.25Zm-35,0a12,12,0,0,0,.66,1.82.31.31,0,0,0,.11.28,7.19,7.19,0,0,0,.51,1.33l.65-1.34,2.41-4.21.56-.93a6.12,6.12,0,0,0,.69-1.11,1.68,1.68,0,0,0-.7.13,11.6,11.6,0,0,0-2.11.34,19.2,19.2,0,0,0-2.11.42l-.91.19c-.74.16-.74.17-.49.86a.31.31,0,0,0,.05.1A15.85,15.85,0,0,0,542.39,432.26Zm31.23,16.85-1.77,2.81a1.67,1.67,0,0,0,.73-.08,37.41,37.41,0,0,0,4.22-.81l1.32-.26c.21,0,.3-.14.22-.36-.17-.47-.32-1-.48-1.42-.36-1.33-.88-2.6-1.34-3.9a.62.62,0,0,0-.41-.36c-.11,0-.21.19-.29.33-.33.65-.67,1.3-1,1.94l-.13.28A15.83,15.83,0,0,0,573.62,449.11Zm-27.38,0-1.06-1.81L545,447l-1.37-2.6c-.61,1.64-1.22,3.16-1.63,4.73-.68,1.6-.61,1.72,1,1.93a35.79,35.79,0,0,0,4.23.79,2.15,2.15,0,0,0,.74.09Z" transform="translate(-520.65 -405.03)"/><path class="cls-1" d="M553.11,442.78a10.85,10.85,0,0,1-.49-2.1,11.23,11.23,0,0,1,.11-2.09,10.21,10.21,0,0,1,.76-2.13l.12-.2a11.18,11.18,0,0,1,1.61-1.89l.49-.36a7.62,7.62,0,0,1,6.33-1,11.84,11.84,0,0,1,2,1l.58.43a11.36,11.36,0,0,1,1.63,1.9.2.2,0,0,0,.11.19,13.28,13.28,0,0,1,.76,2.11,11.48,11.48,0,0,1,.1,2.11,9.45,9.45,0,0,1-.5,2.1l-.46,1-.84,1.15L564.14,446l-1.84,1-.27.05a10,10,0,0,1-2.1.31,11.31,11.31,0,0,1-2.09-.29l-.29-.08a16.59,16.59,0,0,1-1.83-.94l-1.29-1.15-.81-1.09Z" transform="translate(-520.65 -405.03)"/></svg>