<?xml version="1.0" encoding="utf-8"?>
<!-- Generator: Adobe Illustrator 26.3.1, SVG Export Plug-In . SVG Version: 6.00 Build 0)  -->
<svg version="1.1" id="Layer_1" xmlns="http://www.w3.org/2000/svg" xmlns:xlink="http://www.w3.org/1999/xlink" x="0px" y="0px"
	 viewBox="0 0 78.5 70" style="enable-background:new 0 0 78.5 70;" xml:space="preserve">
<style type="text/css">
	.st0{fill:#1A1B1F;}
</style>
<path class="st0" d="M26.5,69.6l-2,0.4c-0.7,0.1-1.4,0.1-2.1,0c-0.7-0.1-1.4-0.3-2-0.5c-0.1-0.1-0.1-0.1-0.2-0.1
	c-0.7-0.4-1.4-0.9-2-1.5c-0.2-0.2-0.3-0.5-0.6-0.6c-0.8-1.3-1.4-2.7-1.7-4.2l-0.4-2.1l-0.1-2.1v-2.1l0.1-2.1l0.2-2.1l0.4-2.1
	c0.1-0.2,0.1-0.3,0.1-0.5c0.2-0.5,0.2-1,0.4-1.5c0.1-0.2-0.1-0.3-0.2-0.3L14,47.4l-2.1-0.8l-0.9-0.4c-0.4-0.2-0.8-0.4-1.2-0.5l-2-1
	c-0.3-0.2-0.6-0.4-0.9-0.5l-1.3-0.9L5.3,43c-2-1.3-3.6-3.1-4.7-5.2c-0.2-0.7-0.4-1.4-0.5-2.1c0-0.7,0-1.4,0.1-2.1
	c0.2-0.7,0.5-1.4,0.8-2.1l0.4-0.6l1.2-1.5l0.9-0.9L5,27.3c0.2-0.1,0.4-0.3,0.6-0.4c1.4-0.9,2.8-1.7,4.2-2.4l4.2-1.8l2-0.7
	c0.3,0,0.3-0.2,0.3-0.4c-0.2-0.9-0.4-1.8-0.6-2.7l-0.3-2.1l-0.2-2.1l-0.1-2.1v-2.1l0.2-2.1l0.5-2.1C16,6,16.1,5.9,16.1,5.7L16.8,4
	c0.8-1.5,2-2.7,3.5-3.4c1.9-0.7,4-0.7,6-0.1h0.3l2.1,0.7c1.4,0.7,2.9,1.5,4.2,2.3L33.6,4L35,5c1.3,1,2.6,2.1,3.9,3.2
	c0.1,0.2,0.3,0.4,0.5,0.1c1.3-1.2,2.7-2.3,4-3.4c0.5-0.3,0.9-0.6,1.3-1c0.3-0.1,0.6-0.3,0.8-0.5c1.4-0.8,2.8-1.6,4.2-2.3l2.1-0.8
	L54,0c1.1-0.1,2.2,0,3.2,0.2c1.7,0.5,3.1,1.6,4,3.2L61.6,4l0.7,1.8l0.1,0.3l0.5,2.1l0.2,2.1l0.1,2.1l-0.1,2.1
	c-0.1,0.7-0.2,1.4-0.2,2.1l-0.3,2.1c-0.2,0.9-0.4,1.8-0.6,2.8c-0.1,0.4,0.2,0.3,0.3,0.4l2.1,0.7l4.1,1.7c1.5,0.8,2.9,1.6,4.3,2.5
	l0.6,0.4l1.5,1.2l0.9,0.9l1.2,1.5l0.4,0.6c0.4,0.7,0.6,1.4,0.8,2.1c0.1,0.7,0.2,1.4,0.1,2.1c-0.1,0.7-0.3,1.4-0.6,2.1
	c-0.4,0.8-0.8,1.5-1.3,2.1c-1.1,1.3-2.3,2.4-3.6,3.3l-1.3,0.8l-0.8,0.5c-1.4,0.8-2.8,1.4-4.2,2.1l-2.1,0.8L63,47.9
	c-1,0.3-1,0.3-0.7,1.4c0,0.4,0.1,0.8,0.2,1.1l0.3,2.1l0.2,2.1l0.1,2.1v2.1L63.1,61L62.7,63c-0.4,1.5-1,2.9-1.8,4.2L60.4,68
	c-0.6,0.6-1.3,1-2,1.4c0,0-0.1,0-0.1,0c-0.7,0.2-1.4,0.4-2.1,0.5l-2.1-0.1L52,69.4l-0.2-0.1l-1.9-0.7l-2.1-1l-0.7-0.3l-1.5-0.9
	c-1.5-1-2.8-2-4.2-3.1L41.3,63l-1.6-1.5c-0.1-0.1-0.2-0.2-0.4,0L37.6,63c-0.2,0.1-0.3,0.2-0.4,0.3c-1.4,1.1-2.8,2.2-4.2,3.1
	c-0.4,0.2-0.8,0.5-1.2,0.8c-0.3,0.1-0.6,0.3-0.9,0.5l-2.1,1l-1.6,0.6L26.5,69.6z M39.4,13.7c-0.4,0.1-0.6,0.6-0.9,0.9
	c-0.4,0.4-0.9,0.9-1.2,1.4c-0.2,0.2-0.5,0.5-0.6,0.8c-0.6,0.6-1.1,1.3-1.7,2l2.3-0.1c0.7,0.1,1.4,0.1,2.1,0l2.1,0h2.2
	c-1.1-1.4-2.3-2.8-3.6-4.1C39.9,14.2,39.6,14,39.4,13.7L39.4,13.7z M49.9,19.2l2.1,0.3l2.1,0.3l2.1,0.4l2.1,0.5
	c0.2,0.1,0.4,0.2,0.4-0.1c0.1-0.6,0.2-1.2,0.3-1.8c0.2-0.7,0.3-1.4,0.3-2.1c0.1-0.7,0.2-1.4,0.2-2.1c0.1-0.7,0.1-1.4,0.1-2.1
	c0-0.7,0-1.4-0.1-2.1c0-0.7-0.1-1.4-0.3-2.1c-0.1-1-0.4-1.9-0.9-2.8c-0.5-1.2-1.7-1.9-3-1.9c-1.2,0-2.4,0.2-3.5,0.7
	c-0.7,0.3-1.4,0.6-2.1,1c-0.6,0.2-1.1,0.6-1.6,0.9c-0.2,0.1-0.4,0.2-0.5,0.3c-1.5,0.9-2.9,1.9-4.2,3.1c-0.3,0.2-0.6,0.5-0.8,0.7
	c-0.2,0.2-0.4,0.4-0.6,0.5s-0.2,0.3,0,0.5l3,3.3c0.2,0.3,0.4,0.5,0.6,0.8l1.1,1.4l1,1.3l0.6,0.8c0.1,0.2,0.2,0.3,0.4,0.3L49.9,19.2z
	 M28.8,19.2c0.3,0,0.5,0,0.8-0.1s0.6,0,0.8-0.4c0.2-0.2,0.4-0.5,0.6-0.8c0.3-0.4,0.7-0.8,0.9-1.2c1.5-1.9,3-3.7,4.7-5.4
	c0.1-0.1,0.2-0.3,0-0.4c-1.7-1.6-3.6-3.1-5.6-4.4c-0.2-0.2-0.4-0.3-0.6-0.4c-0.5-0.3-1-0.6-1.5-0.8c-0.7-0.4-1.4-0.7-2.1-0.9
	c-1-0.4-2.1-0.7-3.2-0.7c-1.5-0.2-3,0.7-3.5,2.2c-0.6,1.4-0.9,3-1,4.6c-0.1,0.7-0.1,1.4-0.1,2.1c0,0.7,0,1.4,0.1,2.1
	c0,0.7,0.1,1.4,0.2,2.1c0.1,0.7,0.2,1.4,0.3,2.1c0.1,0.6,0.2,1.1,0.3,1.7c0,0.3,0.2,0.4,0.5,0.2l2.1-0.5l2.1-0.4l2.1-0.3L28.8,19.2z
	 M33.1,22.5c-0.5,0-1-0.1-1.2,0.5c-1,1.4-1.9,2.8-2.7,4.2c-0.2,0.2-0.3,0.4-0.3,0.6c-0.3,0.5-0.6,1-0.9,1.5
	c-0.4,0.7-0.8,1.4-1.1,2.1l-0.1,0.1c-0.4,0.6-0.7,1.3-1,2c-0.1,0.3-0.3,0.6-0.5,0.9c-0.3,0.4-0.3,1,0.1,1.3c0.6,1.4,1.3,2.8,2.1,4.1
	c0.8,1.5,1.6,2.9,2.5,4.2c0.3,0.5,0.6,1,1,1.5c0.1,0.2,0.2,0.4,0.4,0.6c0.1,0.2,0.3,0.4,0.4,0.6c0.2,0.6,0.8,0.9,1.4,0.8
	c0.7,0.1,1.4,0.1,2.1,0.1c0.7,0.1,1.4,0.1,2.1,0.1h4.2c0.7,0,1.4,0,2.1-0.1c0.7,0,1.4,0,2.1-0.1c0.4,0,0.8,0.1,1.1-0.3l0.7-1
	c0.1-0.1,0.3-0.3,0.3-0.5c0.4-0.5,0.7-1,1-1.6c0.9-1.4,1.7-2.8,2.5-4.2c0.4-0.8,0.9-1.5,1.2-2.3c0.4-0.6,0.7-1.2,0.9-1.9
	c0.2-0.3,0.5-0.5,0.3-0.9L53,33.6c-0.3-0.7-0.6-1.4-1-2c0,0,0,0,0-0.1c-0.4-0.8-0.8-1.5-1.2-2.2c-0.2-0.5-0.5-1-0.9-1.5
	c-0.1-0.2-0.2-0.4-0.3-0.5c-0.4-0.7-0.8-1.4-1.3-2.1l-0.5-0.7c-0.3-0.5-0.6-0.9-0.9-1.4c-0.2-0.6-0.7-0.5-1.2-0.5
	c-0.7-0.1-1.4-0.2-2.1-0.1c-0.7-0.1-1.4-0.1-2.1-0.1c-0.7,0-1.4,0-2.1,0c-1.4,0-2.8,0-4.2,0.1C34.5,22.4,33.8,22.4,33.1,22.5
	L33.1,22.5z M42.1,58.8c-0.2,0.1,0,0.2,0,0.3l1.4,1.2c0.2,0.3,0.5,0.5,0.8,0.7c0.4,0.4,0.8,0.7,1.3,1c1.3,1,2.7,1.9,4.2,2.7
	c1.3,0.8,2.7,1.3,4.2,1.6c0.7,0.2,1.4,0.2,2.1,0c0.7-0.1,1.4-0.4,1.8-1.1c0.1-0.1,0.2-0.2,0.3-0.4c0.4-0.5,0.6-1.1,0.8-1.7
	c0.3-0.7,0.4-1.4,0.5-2.1c0.1-0.7,0.2-1.4,0.2-2.1c0-0.7,0-1.4,0-2.1c0-0.7,0-1.4-0.1-2.1c0-0.7-0.1-1.4-0.3-2.1
	c-0.1-0.7-0.2-1.4-0.4-2.1c0-0.3-0.1-0.6-0.2-0.9c0-0.3-0.2-0.4-0.5-0.2l-2.1,0.5l-4.2,0.8l-2.1,0.3l-0.9,0.1
	c-0.2,0-0.4,0.1-0.6,0.3c-0.9,1.2-1.8,2.3-2.6,3.5l-0.1,0.1l-1.7,2l-0.4,0.4L42.1,58.8z M36.7,58.9l-1.6-1.7
	c-0.1-0.2-0.2-0.3-0.3-0.4l-1.7-2.1l-2.6-3.5c-0.1-0.2-0.3-0.3-0.5-0.3l-1-0.1l-2.1-0.3l-4.2-0.7l-2.2-0.5c-0.2-0.1-0.4-0.2-0.4,0.2
	s-0.1,0.6-0.2,1c-0.2,0.7-0.3,1.4-0.4,2.1c-0.2,0.7-0.3,1.4-0.3,2.1c-0.1,0.7-0.2,1.4-0.1,2.1c-0.1,0.7-0.1,1.4,0,2.1
	c-0.1,0.7,0,1.4,0.1,2.1c0.1,0.7,0.2,1.4,0.5,2.1c0.1,0.6,0.4,1.1,0.7,1.6c0.1,0.2,0.2,0.4,0.4,0.6c0.4,0.5,1,0.9,1.7,1
	c0.7,0.2,1.4,0.2,2.1,0c0.7-0.1,1.5-0.3,2.1-0.6c0.5-0.1,0.9-0.2,1.3-0.5c0.3-0.1,0.6-0.2,0.8-0.4c1.5-0.7,2.9-1.6,4.2-2.7
	c0.5-0.3,1-0.7,1.4-1.1c0.3-0.1,0.5-0.3,0.7-0.5l1.6-1.4C36.7,59,36.8,59,36.7,58.9L36.7,58.9z M39.3,56.3c0.6-0.5,1.2-1,1.6-1.7
	c0.2-0.1,0.4-0.3,0.5-0.5c0.5-0.5,0.9-1,1.3-1.5l1.1-1.3l-2.4,0.1h-4.2c-0.8-0.1-1.5-0.1-2.3-0.1l1,1.2c0.4,0.5,0.8,1,1.3,1.5
	l0.5,0.6C38.2,55.3,38.8,55.8,39.3,56.3L39.3,56.3z M59.9,29.3l-0.8,2.1l-0.8,2.1c0,0,0,0.1,0,0.1l-0.5,1c-0.1,0.2-0.1,0.4-0.1,0.6
	c0.4,0.9,0.8,1.7,1.1,2.6l0.8,2.1l0.7,1.9c0,0.1,0,0.2,0.1,0.3l0.6,2c0.1,0.2-0.1,0.7,0.4,0.5c1.1-0.3,2.2-0.7,3.2-1.2
	c0.7-0.2,1.4-0.5,2-0.8c0.5-0.1,0.9-0.4,1.3-0.6c0.3-0.1,0.6-0.2,0.8-0.4c1.6-0.8,3-1.8,4.2-3c0.2-0.2,0.5-0.4,0.6-0.7
	c0.6-0.6,1.1-1.4,1.2-2.2c0.2-0.7,0.1-1.5-0.3-2.1c-0.4-0.8-0.9-1.5-1.6-2.1c-0.6-0.7-1.3-1.2-2.1-1.7c-0.2-0.2-0.4-0.3-0.6-0.4
	c-0.5-0.3-1-0.6-1.5-0.9c-0.6-0.4-1.3-0.7-2-1c-0.1-0.1-0.3-0.2-0.5-0.2c-0.5-0.3-1.1-0.6-1.7-0.7c-0.7-0.3-1.4-0.6-2.1-0.8
	c-0.3-0.1-0.6-0.2-0.9-0.3s-0.4-0.1-0.5,0.2c-0.1,0.5-0.3,1.1-0.5,1.6c-0.1,0.3-0.2,0.5-0.2,0.8C60.3,28.5,60.2,28.9,59.9,29.3
	L59.9,29.3z M5.6,31.4C5,32,4.4,32.7,4.1,33.5c-0.4,0.6-0.5,1.4-0.3,2.1c0.2,0.8,0.6,1.5,1.2,2.1c0.2,0.3,0.4,0.6,0.7,0.8
	c1.2,1.2,2.7,2.2,4.2,3c0.2,0.2,0.5,0.3,0.8,0.4c0.4,0.3,0.8,0.5,1.3,0.6c0.7,0.4,1.4,0.7,2.1,0.9c0.9,0.4,1.9,0.7,2.8,1
	c0.6,0.2,0.6,0.2,0.8-0.4l0.6-2.1v-0.1c0.3-0.7,0.5-1.3,0.7-2l0.8-2c0.4-0.9,0.8-1.8,1.1-2.7c0.1-0.1,0.1-0.3,0-0.5
	c-0.2-0.4-0.3-0.7-0.5-1.1l-0.1-0.2l-0.9-2.1L18,27.2c-0.1-0.3-0.1-0.5-0.2-0.8c-0.4-1.2-0.4-1.2-1.6-0.7c-0.7,0.2-1.4,0.5-2.1,0.8
	c-0.6,0.2-1.2,0.4-1.7,0.7L12,27.3c-0.7,0.3-1.4,0.7-2.1,1.1c-0.5,0.2-1,0.5-1.5,0.9c-0.2,0.1-0.4,0.2-0.6,0.4
	C7,30.2,6.3,30.8,5.6,31.4L5.6,31.4z M56.8,27.2c0.3-0.7,0.5-1.4,0.7-2.1c0.3-0.8,0.3-0.8-0.5-1L56.2,24c-0.7-0.2-1.4-0.3-2.1-0.4
	c-0.9-0.2-1.9-0.4-2.9-0.5l1.3,2.1l2.4,4.2c0.2,0.4,0.4,0.9,0.7,1.3l0.4-1.3c0.1-0.1,0.1-0.2,0.1-0.4C56.5,28.4,56.7,27.8,56.8,27.2
	L56.8,27.2z M21.8,27.2c0.2,0.6,0.4,1.2,0.7,1.8c0,0.1,0,0.2,0.1,0.3c0.1,0.5,0.3,0.9,0.5,1.3l0.6-1.3l2.4-4.2l0.6-0.9
	c0.3-0.4,0.5-0.7,0.7-1.1c-0.2,0-0.5,0-0.7,0.1c-0.7,0-1.4,0.2-2.1,0.3c-0.7,0.1-1.4,0.2-2.1,0.4l-0.9,0.2c-0.7,0.2-0.7,0.2-0.5,0.9
	c0,0,0,0.1,0,0.1C21.3,25.8,21.5,26.5,21.8,27.2L21.8,27.2z M53.1,44.1l-1.8,2.8c0.2,0,0.5,0,0.7-0.1c1.4-0.2,2.8-0.4,4.2-0.8
	l1.3-0.3c0.2,0,0.3-0.1,0.2-0.4c-0.2-0.5-0.3-1-0.5-1.4c-0.4-1.3-0.9-2.6-1.3-3.9c-0.1-0.2-0.2-0.3-0.4-0.4c-0.1,0-0.2,0.2-0.3,0.3
	l-1,1.9l-0.1,0.3C53.7,42.9,53.4,43.5,53.1,44.1L53.1,44.1z M25.7,44.1l-1.1-1.8L24.4,42l-1.4-2.6c-0.6,1.6-1.2,3.2-1.6,4.7
	c-0.7,1.6-0.6,1.7,1,1.9c1.4,0.3,2.8,0.6,4.2,0.8c0.2,0.1,0.5,0.1,0.7,0.1L25.7,44.1z"/>
<path class="st0" d="M32.5,37.8c-0.2-0.7-0.4-1.4-0.5-2.1c0-0.7,0-1.4,0.1-2.1c0.2-0.7,0.4-1.5,0.8-2.1l0.1-0.2
	c0.5-0.7,1-1.3,1.6-1.9l0.5-0.4c1.9-1.2,4.2-1.6,6.3-1c0.7,0.3,1.4,0.6,2,1l0.6,0.4c0.6,0.6,1.2,1.2,1.6,1.9c0,0.1,0,0.2,0.1,0.2
	c0.3,0.7,0.6,1.4,0.8,2.1c0.1,0.7,0.1,1.4,0.1,2.1c-0.1,0.7-0.3,1.4-0.5,2.1l-0.5,1L44.8,40l-1.3,1l-1.8,1l-0.3,0
	c-0.7,0.2-1.4,0.3-2.1,0.3c-0.7-0.1-1.4-0.2-2.1-0.4H37c-0.6-0.3-1.2-0.6-1.8-1l-1.3-1.2l-0.8-1.1L32.5,37.8z"/>
</svg>
