<svg id="Layer_1" data-name="Layer 1" xmlns="http://www.w3.org/2000/svg" viewBox="0 0 9.3 39.83"><path d="M915.18,366.72a6.15,6.15,0,0,0-2.62,1.53,4.25,4.25,0,0,0-1,3.2,4.32,4.32,0,0,0,.54,1.72,6.48,6.48,0,0,0,1.07,1.31,11.71,11.71,0,0,1,1.77,1.73,1.88,1.88,0,0,1,.3.77,2.86,2.86,0,0,1,0,.92,2.6,2.6,0,0,1-.95,1.54,15.52,15.52,0,0,0-2.14,2.12,4.93,4.93,0,0,0-.79,1.74,5.46,5.46,0,0,0-.1,1.84,4.86,4.86,0,0,0,.59,1.83,5.4,5.4,0,0,0,1.12,1.38,20.61,20.61,0,0,1,1.93,1.68,2.26,2.26,0,0,1,.44.78,3,3,0,0,1,.14.92,5.74,5.74,0,0,1-.86,2.15,6.81,6.81,0,0,0-.73,3,12.22,12.22,0,0,0,.13,1.44c0,.4.1.79.15,1.18a6.18,6.18,0,0,0-1.19-1.33,6.54,6.54,0,0,0-2.82-1.4l-.13,0h-.07a.13.13,0,0,0-.06.15c.65,1.56,1.44,3.05,2.15,4.58s1.53,3,2.4,4.44l0,0,0,0h.09l0,0,0,0c.87-1.45,1.6-3,2.4-4.44s1.5-3,2.15-4.58a.08.08,0,0,0,0-.07.11.11,0,0,0-.14-.08l-.12,0a6.65,6.65,0,0,0-2.82,1.4,6.75,6.75,0,0,0-1.14,1.27c0-.37.07-.74.1-1.12a8.43,8.43,0,0,1,.15-1.31,5.55,5.55,0,0,1,1-2.19c.25-.34.53-.7.81-1.15a4.75,4.75,0,0,0,.67-1.64,4.83,4.83,0,0,0,0-1.82,4.69,4.69,0,0,0-.77-1.68,19.29,19.29,0,0,0-2.06-2.12,2.39,2.39,0,0,1-.8-1.56,2.3,2.3,0,0,1,.42-1.65,14.84,14.84,0,0,1,1.78-1.75,6.41,6.41,0,0,0,1.08-1.37,4.91,4.91,0,0,0,.6-1.8,5.15,5.15,0,0,0-.1-1.83,4.37,4.37,0,0,0-.81-1.73,10.69,10.69,0,0,0-2.31-2,2.58,2.58,0,0,1-1.16-1.59,2.66,2.66,0,0,1,.25-2,5.55,5.55,0,0,1,1.81-1.67c.76-.48,1.58-.91,2.4-1.36A17.87,17.87,0,0,0,915.18,366.72Z" transform="translate(-909.83 -366.13)"/></svg>