<svg id="Layer_1" data-name="Layer 1" xmlns="http://www.w3.org/2000/svg" viewBox="0 0 39.83 9.3"><defs><style>.cls-1{fill:#fff;}</style></defs><path class="cls-1" d="M678.36,361.42a6.07,6.07,0,0,0-1.53-2.62,4.22,4.22,0,0,0-3.19-1,4.17,4.17,0,0,0-1.72.54,5.71,5.71,0,0,0-1.32,1.07,12.79,12.79,0,0,1-1.72,1.77,1.85,1.85,0,0,1-.78.29,3.1,3.1,0,0,1-.91,0,2.67,2.67,0,0,1-1.54-1,15.53,15.53,0,0,0-2.12-2.13,4.94,4.94,0,0,0-1.74-.8,5.8,5.8,0,0,0-1.85-.1,4.87,4.87,0,0,0-1.82.59,5.86,5.86,0,0,0-1.38,1.12,20.81,20.81,0,0,1-1.69,1.94,2.31,2.31,0,0,1-.78.43,3.21,3.21,0,0,1-.91.15,5.77,5.77,0,0,1-2.16-.87,6.77,6.77,0,0,0-3-.73,12.42,12.42,0,0,0-1.44.13l-1.18.15a6.4,6.4,0,0,0,2.74-4l0-.12a.15.15,0,0,0,0-.07.11.11,0,0,0-.15-.06c-1.56.64-3.05,1.43-4.57,2.14s-3,1.53-4.45,2.4l0,0s0,0,0,0h0s0,0,0,0,0,0,0,0,0,0,0,0l0,0c1.45.86,3,1.59,4.45,2.39s3,1.5,4.57,2.15h.07a.13.13,0,0,0,.09-.14l0-.12a6.65,6.65,0,0,0-1.41-2.83,6.49,6.49,0,0,0-1.27-1.14l1.12.1a7.57,7.57,0,0,1,1.32.16,5.42,5.42,0,0,1,2.18,1c.34.25.71.53,1.16.81a4.42,4.42,0,0,0,1.64.67,4.64,4.64,0,0,0,1.82,0,4.77,4.77,0,0,0,1.68-.77,20.06,20.06,0,0,0,2.11-2.05,2.36,2.36,0,0,1,1.57-.81,2.29,2.29,0,0,1,1.64.42,14.84,14.84,0,0,1,1.75,1.78,6.7,6.7,0,0,0,1.37,1.09,4.9,4.9,0,0,0,1.81.6,5.66,5.66,0,0,0,1.83-.1,4.49,4.49,0,0,0,1.72-.82,10.78,10.78,0,0,0,2-2.31,2.63,2.63,0,0,1,1.58-1.16,2.68,2.68,0,0,1,2,.25,5.52,5.52,0,0,1,1.66,1.81c.49.76.91,1.59,1.37,2.4A18.17,18.17,0,0,0,678.36,361.42Z" transform="translate(-639.12 -356.08)"/></svg>