<svg id="Layer_1" data-name="Layer 1" xmlns="http://www.w3.org/2000/svg" viewBox="0 0 39.83 9.3"><path d="M933.81,386.74a6.15,6.15,0,0,0-1.53-2.62,4.25,4.25,0,0,0-3.2-1,4.32,4.32,0,0,0-1.72.54,6.19,6.19,0,0,0-1.31,1.08,12,12,0,0,1-1.73,1.76,1.88,1.88,0,0,1-.77.3,2.86,2.86,0,0,1-.92,0,2.6,2.6,0,0,1-1.54-.95,16.09,16.09,0,0,0-2.12-2.14,4.93,4.93,0,0,0-1.74-.79,5.46,5.46,0,0,0-1.84-.1,4.86,4.86,0,0,0-1.83.59,5.62,5.62,0,0,0-1.38,1.12,19.38,19.38,0,0,1-1.68,1.93,2.26,2.26,0,0,1-.78.44,3,3,0,0,1-.92.14,5.57,5.57,0,0,1-2.15-.86,6.81,6.81,0,0,0-3-.73,12.22,12.22,0,0,0-1.44.13c-.4,0-.79.1-1.18.15a6.18,6.18,0,0,0,1.33-1.19,6.54,6.54,0,0,0,1.4-2.82l0-.12a.08.08,0,0,0,0-.07.13.13,0,0,0-.15-.07c-1.56.65-3,1.44-4.58,2.15s-3,1.53-4.44,2.4a0,0,0,0,0,0,0l0,0h0v.08l0,0,0,0c1.45.87,3,1.6,4.44,2.4s3,1.5,4.58,2.15h.07a.11.11,0,0,0,.08-.14l0-.12a6.46,6.46,0,0,0-2.67-4l1.12.1a8.43,8.43,0,0,1,1.31.15,5.55,5.55,0,0,1,2.19,1c.34.25.7.53,1.15.81a4.75,4.75,0,0,0,1.64.67,4.83,4.83,0,0,0,1.82,0,4.69,4.69,0,0,0,1.68-.77,19.29,19.29,0,0,0,2.12-2.06,2.39,2.39,0,0,1,1.56-.8,2.3,2.3,0,0,1,1.65.42,15.64,15.64,0,0,1,1.75,1.78,6.12,6.12,0,0,0,1.37,1.08,4.93,4.93,0,0,0,1.8.61,5.66,5.66,0,0,0,1.83-.1,4.53,4.53,0,0,0,1.73-.82,10.69,10.69,0,0,0,2-2.31,2.58,2.58,0,0,1,1.59-1.16,2.66,2.66,0,0,1,2,.25A5.65,5.65,0,0,1,933,387.1c.48.76.9,1.58,1.36,2.4A17.87,17.87,0,0,0,933.81,386.74Z" transform="translate(-894.57 -381.39)"/></svg>