<?xml version="1.0" encoding="utf-8"?>
<!-- Generator: Adobe Illustrator 25.2.3, SVG Export Plug-In . SVG Version: 6.00 Build 0)  -->
<svg version="1.1" id="Layer_1" xmlns="http://www.w3.org/2000/svg" xmlns:xlink="http://www.w3.org/1999/xlink" x="0px" y="0px"
	 viewBox="0 0 46.6 70" style="enable-background:new 0 0 46.6 70;" xml:space="preserve">
<style type="text/css">
	.st0{fill:#493011;}
</style>
<path class="st0" d="M36.4,23.3c7.2,1.2,10.5,7,10.2,12.1c-0.2,5.6-4.4,10.3-10,11.1c-6.1,0.9-11.9-3.2-13.2-9.2v20.8
	c0.1,3.2-1.3,6.4-3.6,8.6c-3,3.1-7.6,4.1-11.6,2.7c-4.1-1.2-7.2-4.6-7.9-8.8C-1,54.3,3,48.1,9.3,46.8c0,0,0,0,0,0l0.5-0.1
	c0.3,0,0.6,0,0.8-0.1C4.4,45.8,0,41,0,35c0-6,4.5-11,10.5-11.7C4.1,22.7-0.6,16.9,0.1,10.5C0.6,5.1,4.9,0.8,10.3,0.1
	C11.1,0,11.9,0,12.7,0h22.2c3.2-0.1,6.3,1.2,8.5,3.5c4.5,4.6,4.4,12-0.2,16.5c-1.6,1.6-3.6,2.6-5.8,3.1L36.4,23.3z M23.4,32.9
	c0.9-4.7,4.6-8.4,9.3-9.4h-9.3L23.4,32.9z"/>
</svg>
