<svg id="Layer_1" data-name="Layer 1" xmlns="http://www.w3.org/2000/svg" viewBox="0 0 69.8 66.98"><defs><style>.cls-1{fill:#493011;}</style></defs><path class="cls-1" d="M0,33.6c.2-1.2.3-2.5.5-3.7A33.79,33.79,0,0,1,14.3,8.1,34.56,34.56,0,0,1,37.1,1.5,34.6,34.6,0,0,1,69.3,29.9,34,34,0,0,1,50.4,66.4c-1.3.6-2.7,1.1-4.1,1.7a.75.75,0,0,1-.5.1,1.72,1.72,0,0,1-2.3-.9,1.41,1.41,0,0,1-.1-.9v-9a6.15,6.15,0,0,0-.1-1.4,7.9,7.9,0,0,0-2.2-5c1.7-.4,3.4-.6,5-1.1,6.3-1.7,10-6.2,10.6-12.7a25.28,25.28,0,0,0,0-5.5,11.51,11.51,0,0,0-3-6.5.8.8,0,0,1-.2-1,12.79,12.79,0,0,0-.3-8.2c-.2-.6-.7-.5-1-.5a18.64,18.64,0,0,0-3.9,1A35.5,35.5,0,0,0,44,18.8a1.38,1.38,0,0,1-1.1.1,34.55,34.55,0,0,0-16.3,0,1.16,1.16,0,0,1-1-.2,22.53,22.53,0,0,0-6.9-3.1c-2-.4-2.2-.3-2.8,1.7a11.93,11.93,0,0,0,.1,7,1.27,1.27,0,0,1-.1.6c-3,3.4-3.7,7.3-3.2,11.6a15.94,15.94,0,0,0,2.5,7.6,13.61,13.61,0,0,0,8.5,5.7c1.5.4,3.1.6,4.7,1a7.51,7.51,0,0,0-2,4.2,1,1,0,0,1-.4.5c-3.7,1.5-7.4.9-9.8-2.9a6.76,6.76,0,0,0-5.1-3.5,5.7,5.7,0,0,0-1.3.1c-.7.1-.8.6-.3,1.1.3.3.6.5.9.8a9,9,0,0,1,3.8,4.6c1.6,4.4,5.7,5.9,9.8,5.5l2.2-.3v5.4c0,1.6-1.1,2.5-2.6,1.9C11.6,63.8,3.9,55.6.8,43.2a39.67,39.67,0,0,1-.7-4.8L0,37.8Z" transform="translate(0 -1.41)"/></svg>