<?xml version="1.0" encoding="utf-8"?>
<!-- Generator: Adobe Illustrator 26.3.1, SVG Export Plug-In . SVG Version: 6.00 Build 0)  -->
<svg version="1.1" id="Layer_1" xmlns="http://www.w3.org/2000/svg" xmlns:xlink="http://www.w3.org/1999/xlink" x="0px" y="0px"
	 viewBox="0 0 61.6 70" style="enable-background:new 0 0 61.6 70;" xml:space="preserve">
<style type="text/css">
	.st0{fill:#1A1B1F;}
</style>
<path class="st0" d="M0,0.9V0h61.6c-0.3,3.2-0.6,6.4-0.9,9.6c-1.6,17.5-3.1,35-4.6,52.5c-0.1,0.8-0.4,1-1.1,1.2
	c-4.4,1.2-8.9,2.4-13.3,3.7c-3.5,1-7,2-10.6,3h-0.7c-0.2-0.1-0.4-0.2-0.6-0.2c-7.7-2.2-15.5-4.3-23.2-6.5c-0.7-0.2-1-0.5-1-1.2
	C5.3,58.4,5,54.8,4.6,51.2C3.3,36.6,2,21.9,0.7,7.1C0.5,5.1,0.2,3,0,0.9z M50.1,12.9H11.5l2.1,23.3h26.7c-0.3,3.3-0.5,6.4-0.9,9.5
	c0,0.3-0.5,0.6-0.8,0.7c-2.5,0.7-4.9,1.4-7.4,2c-0.4,0.1-0.8,0.1-1.1,0c-2.4-0.6-4.7-1.3-7.1-1.9c-0.6-0.1-1-0.6-1-1.2
	c-0.1-1.7-0.3-3.4-0.4-5.1h-7.7c0.3,3.9,0.6,7.6,1,11.4c0,0.3,0.6,0.8,0.9,0.9c4.7,1.3,9.4,2.6,14.1,3.9c0.6,0.1,1.1,0.1,1.7,0
	c4.6-1.2,9.2-2.6,13.8-3.8c0.8-0.1,1.4-0.8,1.3-1.6c0.5-5.9,1-11.8,1.6-17.7c0.1-1.6,0.2-3.1,0.4-4.9h-28l-0.7-7.9h29.5
	C49.6,17.9,49.9,15.5,50.1,12.9L50.1,12.9z"/>
</svg>
