<svg id="Layer_1" data-name="Layer 1" xmlns="http://www.w3.org/2000/svg" viewBox="0 0 71.8 70"><defs><style>.cls-1{fill:#493011;}.cls-2{fill:#343434;}</style></defs><path class="cls-1" d="M35.89,70H12.8A12.71,12.71,0,0,1,0,57.4V12.86A12.67,12.67,0,0,1,9.83.37a12.12,12.12,0,0,1,3-.34H59.06A12.72,12.72,0,0,1,71.52,10a12.34,12.34,0,0,1,.29,2.64V57.5A12.69,12.69,0,0,1,61.66,69.77,14.36,14.36,0,0,1,59,70Zm5-20.54h3c.49,0,.58-.13.41-.6-.27-.79-.55-1.58-.83-2.36q-5-14.12-10-28.21A.5.5,0,0,0,33,18h-7.5c-.32,0-.44.12-.44.44a6.87,6.87,0,0,1-.25,2.07c-1,3.08-2.09,6.11-3.15,9.17Q18.29,39.22,15,48.81c-.18.53-.07.68.5.68h5.24c.54,0,.64-.07.81-.58.67-2.17,1.36-4.34,2.09-6.52a.46.46,0,0,1,.53-.37H34.35a.55.55,0,0,1,.63.45c.73,2.17,1.49,4.33,2.23,6.51a.66.66,0,0,0,.74.52c.94-.06,1.92,0,2.89,0Zm13.32-12V26.13c0-.53-.05-.57-.58-.57H48c-.49,0-.53,0-.53.54V48.85c0,.56.08.64.66.64h5.36c.64,0,.68,0,.68-.68Zm.42-18.25a3.51,3.51,0,0,0-3.27-3.72h-.43A3.64,3.64,0,0,0,47.16,19v.2a3.74,3.74,0,0,0,7.47.39,2.54,2.54,0,0,0,0-.39Z" transform="translate(-0.01 -0.03)"/><path class="cls-2" d="M33,35.92c-1.32-4.15-2.67-8.24-3.85-12.39-.52,2.42-1.34,4.72-2.05,7.06-.51,1.68-1,3.38-1.57,5-.08.23,0,.31.22.3H26.9Z" transform="translate(-0.01 -0.03)"/><path class="cls-1" d="M33,35.92H25.77c-.39,0-.3-.07-.22-.3.6-1.65,1.06-3.35,1.57-5,.71-2.34,1.53-4.64,2.05-7.06C30.33,27.68,31.68,31.77,33,35.92Z" transform="translate(-0.01 -0.03)"/></svg>