<svg id="Layer_1" data-name="Layer 1" xmlns="http://www.w3.org/2000/svg" viewBox="0 0 71.75 69.99"><defs><style>.cls-1{fill:#493011;}</style></defs><path class="cls-1" d="M71.77,11.54V58.45a3.41,3.41,0,0,0-.19,1A12.71,12.71,0,0,1,61.21,69.81a5.73,5.73,0,0,0-1.16.19H11.47c0-.1-.11-.07-.17-.08-.48-.08-1-.15-1.44-.25A12.72,12.72,0,0,1,.21,59.5a4.21,4.21,0,0,0-.19-1v-47a3.11,3.11,0,0,0,.19-1A12.7,12.7,0,0,1,10.51.2c.36-.06.5-.13,1.05-.19H60.21c.42.06.74.13,1.12.19a12.75,12.75,0,0,1,10.3,10.3A3.67,3.67,0,0,0,71.77,11.54ZM52.92,30.73h0V15.84c0-.45-.05-.49-.49-.49H46.8c-.54,0-.56,0-.56.56v8.84c0,.3-.06.39-.38.36a15.78,15.78,0,0,0-6.11.57,12.22,12.22,0,0,0-8.58,8.55,13.87,13.87,0,0,0-.35,5.55,11.33,11.33,0,0,0,1.56,4.79,10.93,10.93,0,0,0,7,4.94,18.07,18.07,0,0,0,6,.35,24.7,24.7,0,0,0,7.18-1.67c.46-.19.51-.27.49-.77,0-.92-.14-1.84-.14-2.76ZM19.4,33.68V48.81c0,.59.08.67.66.67h5.26c.69,0,.76-.06.76-.76V18.51c0-.49-.12-.6-.61-.6H20.08c-.61,0-.68.07-.68.68Z" transform="translate(-0.02 -0.01)"/><path class="cls-1" d="M46.21,37.4v6.21c0,.28-.06.42-.35.45a9.68,9.68,0,0,1-5-.47A5.16,5.16,0,0,1,38,40.51a8.48,8.48,0,0,1-.26-5.29,6.2,6.2,0,0,1,4.59-4.35,7.45,7.45,0,0,1,3.48-.14c.25,0,.37.12.37.42Z" transform="translate(-0.02 -0.01)"/></svg>