<?xml version="1.0" encoding="utf-8"?>
<!-- Generator: Adobe Illustrator 26.3.1, SVG Export Plug-In . SVG Version: 6.00 Build 0)  -->
<svg version="1.1" id="Layer_1" xmlns="http://www.w3.org/2000/svg" xmlns:xlink="http://www.w3.org/1999/xlink" x="0px" y="0px"
	 viewBox="0 0 71.8 70" style="enable-background:new 0 0 71.8 70;" xml:space="preserve">
<style type="text/css">
	.st0{fill:#1A1B1F;}
	.st1{fill:#493011;}
</style>
<path class="st0" d="M71.8,11.5v46.9c-0.1,0.3-0.2,0.7-0.2,1c-0.9,5.3-5.1,9.4-10.4,10.4c-0.4,0-0.8,0.1-1.2,0.2H11.4
	c0-0.1-0.1-0.1-0.2-0.1c-0.5-0.1-1-0.2-1.4-0.2c-5-1.2-8.8-5.2-9.7-10.2c0-0.3-0.1-0.7-0.2-1v-47c0.1-0.3,0.2-0.7,0.2-1
	c0.9-5.3,5-9.4,10.3-10.3C10.8,0.1,11,0.1,11.5,0h48.6c0.4,0.1,0.7,0.1,1.1,0.2c5.2,0.9,9.4,5.1,10.3,10.3
	C71.6,10.8,71.7,11.2,71.8,11.5z M52.9,30.7L52.9,30.7V15.8c0-0.4,0-0.5-0.5-0.5h-5.6c-0.5,0-0.6,0-0.6,0.6v8.8
	c0,0.3-0.1,0.4-0.4,0.4c-2.1-0.2-4.1,0-6.1,0.6c-4.2,1.1-7.4,4.4-8.6,8.6c-0.5,1.8-0.6,3.7-0.4,5.5c0.2,1.7,0.7,3.3,1.6,4.8
	c1.6,2.5,4.1,4.3,7,4.9c2,0.5,4,0.6,6,0.3c2.5-0.2,4.9-0.8,7.2-1.7C53,48,53,47.9,53,47.4c0-0.9-0.1-1.8-0.1-2.8L52.9,30.7z
	 M19.4,33.7v15.1c0,0.6,0.1,0.7,0.7,0.7h5.3c0.7,0,0.8-0.1,0.8-0.8V18.5c0-0.5-0.1-0.6-0.6-0.6h-5.4c-0.6,0-0.7,0.1-0.7,0.7V33.7z"
	/>
<path class="st1" d="M46.2,37.4v6.2c0,0.3-0.1,0.4-0.3,0.5c-1.7,0.3-3.4,0.1-5-0.5c-1.3-0.6-2.4-1.7-2.9-3.1
	c-0.6-1.7-0.7-3.5-0.3-5.3c0.6-2.2,2.4-3.8,4.6-4.4c1.1-0.3,2.3-0.4,3.5-0.1c0.2,0,0.4,0.1,0.4,0.4L46.2,37.4z"/>
</svg>
