<svg id="Layer_1" data-name="Layer 1" xmlns="http://www.w3.org/2000/svg" viewBox="0 0 70.05 69.99"><defs><style>.cls-1{fill:#493011;}</style></defs><path class="cls-1" d="M.05,35V4.81A4.71,4.71,0,0,1,4.66,0H65.27A4.65,4.65,0,0,1,70,4.54V65.22A4.67,4.67,0,0,1,65.46,70H4.78a4.71,4.71,0,0,1-4-2A4.4,4.4,0,0,1,0,65.62V65ZM31.79,22.58l-.23-.2L18.33,9.66a1,1,0,0,0-.76-.3H11c-.46,0-.46,0-.3.42Q13.83,18.12,17,26.45A1.07,1.07,0,0,1,17,27q-1.38,7.13-2.74,14.24l-3.66,19c-.07.34,0,.42.34.42H17.6a.52.52,0,0,0,.58-.41Q24.93,42.71,31.7,25.15a.34.34,0,0,1,.22-.37,1,1,0,0,1,0,.24c-.23,1.3-.47,2.61-.71,3.91q-1.42,7.83-2.86,15.65T25.49,60.3c-.06.32,0,.37.31.37h6.68a.51.51,0,0,0,.57-.41Q39.82,41.11,46.61,22a.28.28,0,0,1,.18-.31V22L46,26.72q-1.23,7.34-2.47,14.69Q42,50.85,40.38,60.29c-.06.34,0,.38.32.38h6.68a.47.47,0,0,0,.54-.39h0c1.22-3.81,2.47-7.61,3.7-11.41Q56.71,33.22,61.8,17.58c.09-.28.08-.42-.21-.58L48.05,9.5a1.29,1.29,0,0,0-.67-.18H40.65c-.11,0-.26-.06-.33,0s.08.23.14.33c1.47,2.29,3,4.57,4.42,6.85l1.77,2.8-.06.06-.38-.27L33.15,9.51a1.2,1.2,0,0,0-.75-.24h-7a.81.81,0,0,0,.13.38c1.41,2.88,2.84,5.76,4.25,8.64l2,4.13Z" transform="translate(0.02 0)"/></svg>