<svg id="Layer_1" data-name="Layer 1" xmlns="http://www.w3.org/2000/svg" viewBox="0 0 70.04 70.03"><defs><style>.cls-1{fill:#493011;}</style></defs><path class="cls-1" d="M70,35V63.17a6.77,6.77,0,0,1-5.37,6.68,6.94,6.94,0,0,1-1.57.18H6.86A6.79,6.79,0,0,1,0,63.35V6.92A6.78,6.78,0,0,1,6.6,0H63.06A6.78,6.78,0,0,1,70,6.66v.26Zm-8.94-4V41.6c0,.59,0,.59.57.59h2.73c.42,0,.54-.12.54-.55V27.75c0-.57,0-.57-.58-.57H42.46a3.69,3.69,0,0,0,0,.47v14c0,.38.1.51.49.51h6.51c.57,0,.57,0,.57-.58V31h3.65V41.67c0,.37.08.52.49.51h2.77c.57,0,.57,0,.57-.58V31ZM31.31,42.19h7c.35,0,.48-.09.48-.46V27.66c0-.36-.1-.48-.47-.48H24.21c-.38,0-.47.12-.47.48V45.47c0,.38.15.46.5.46h6.67c.34,0,.46-.1.45-.45V42.71a2.1,2.1,0,0,1,0-.56ZM16.27,31V41.64c0,.38.08.54.51.53h2.86c.4,0,.49-.14.49-.51v-14c0-.38-.1-.52-.52-.52h-14c-.43,0-.51.14-.51.53V41.61c0,.47.16.55.58.55H12.1c.58,0,.58,0,.58-.58V31Z" transform="translate(0.04 0)"/><path class="cls-1" d="M34.93,38.3H31.34V31h3.59Z" transform="translate(0.04 0)"/></svg>