<svg id="Layer_1" data-name="Layer 1" xmlns="http://www.w3.org/2000/svg" viewBox="0 0 71.73 70.01"><defs><style>.cls-1{fill:#493011;}</style></defs><path class="cls-1" d="M35.92,0H58.81A12.62,12.62,0,0,1,71.58,10.82a14.16,14.16,0,0,1,.13,2.25v44A12.56,12.56,0,0,1,59.53,70c-.25,0-.51,0-.76,0H12.92A12.6,12.6,0,0,1,.13,59.24a12.15,12.15,0,0,1-.14-2V12.78A12.56,12.56,0,0,1,12.38.05h.27C20.42,0,28.18,0,35.92,0ZM17,33.73V48.61c0,.69.21.9.88.88h4.67c.71,0,1-.2.94-.93V40.23c0-.63.2-.78.8-.79,1.81,0,3.63,0,5.43-.16a11.2,11.2,0,0,0,7-3.15c2.44-2.44,3.08-5.47,2.79-8.74a9.44,9.44,0,0,0-3.88-7.08,14.16,14.16,0,0,0-8.53-2.45C24.08,17.86,21,18,18,18c-.71,0-.92.21-.91.93C17.06,23.83,17,28.73,17,33.73Zm33.08-5.09c-.13-.83-.24-1.57-.37-2.31a.86.86,0,0,0-.92-.8H44.08c-.45,0-.58.17-.55.61.09,1.89.19,3.78.2,5.68V48.56c0,.73.23.95.93.94,1.61,0,3.22,0,4.83,0,.75,0,1-.22,1-1,0-4.56,0-9.13-.05-13.7A1.84,1.84,0,0,1,51.53,33a8.09,8.09,0,0,1,.84-.4,13,13,0,0,1,5.09-1c.56,0,.78-.2.77-.77v-5c0-.67-.27-.85-.89-.8a10,10,0,0,0-5.57,2.16c-.56.45-1.06.94-1.65,1.46Z" transform="translate(0.01 0)"/><path class="cls-1" d="M23.53,28.73V24.45c0-.55.12-.8.73-.77a42.55,42.55,0,0,1,4.65.2c3.19.5,4.74,2.86,4.14,6a4.26,4.26,0,0,1-2.68,3.21c-2.06.91-4.25.79-6.43.7-.14,0-.38-.37-.38-.58V28.7Z" transform="translate(0.01 0)"/></svg>