<?xml version="1.0" encoding="utf-8"?>
<!-- Generator: Adobe Illustrator 26.3.1, SVG Export Plug-In . SVG Version: 6.00 Build 0)  -->
<svg version="1.1" id="Layer_1" xmlns="http://www.w3.org/2000/svg" xmlns:xlink="http://www.w3.org/1999/xlink" x="0px" y="0px"
	 viewBox="0 0 71.7 70" style="enable-background:new 0 0 71.7 70;" xml:space="preserve">
<style type="text/css">
	.st0{fill:#1A1B1F;}
	.st1{fill:#493011;}
</style>
<path class="st0" d="M35.9,0h22.9c6.4-0.1,11.9,4.5,12.8,10.8c0.1,0.7,0.1,1.5,0.1,2.2v44C71.9,64,66.5,69.8,59.5,70c0,0,0,0,0,0
	c-0.2,0-0.5,0-0.8,0H12.9C6.6,70.2,1.1,65.5,0.1,59.2C0,58.6,0,57.9,0,57.2V12.8C-0.1,5.8,5.5,0.1,12.4,0.1c0,0,0,0,0,0h0.3
	C20.4,0,28.2,0,35.9,0z M17,33.7v14.9c0,0.7,0.2,0.9,0.9,0.9h4.7c0.7,0,1-0.2,0.9-0.9v-8.3c0-0.6,0.2-0.8,0.8-0.8
	c1.8,0,3.6,0,5.4-0.2c2.6-0.2,5.1-1.3,7-3.2c2.4-2.4,3.1-5.5,2.8-8.7c-0.2-2.8-1.6-5.4-3.9-7.1c-2.5-1.7-5.5-2.6-8.5-2.5
	c-3,0-6.1,0.1-9.1,0.1c-0.7,0-0.9,0.2-0.9,0.9C17.1,23.8,17,28.7,17,33.7z M50.1,28.6c-0.1-0.8-0.2-1.6-0.4-2.3
	c0-0.5-0.4-0.8-0.9-0.8c0,0,0,0,0,0h-4.7c-0.5,0-0.6,0.2-0.5,0.6c0.1,1.9,0.2,3.8,0.2,5.7v16.7c0,0.7,0.2,1,0.9,0.9
	c1.6,0,3.2,0,4.8,0c0.8,0,1-0.2,1-1c0-4.6,0-9.1,0-13.7c0-0.8,0.4-1.5,1.1-1.8c0.3-0.1,0.6-0.3,0.8-0.4c1.6-0.7,3.3-1,5.1-1
	c0.6,0,0.8-0.2,0.8-0.8v-5c0-0.7-0.3-0.9-0.9-0.8c-2,0.1-4,0.9-5.6,2.2C51.2,27.6,50.7,28.1,50.1,28.6L50.1,28.6z"/>
<path class="st1" d="M23.5,28.7v-4.3c0-0.5,0.1-0.8,0.7-0.8c1.6,0,3.1,0,4.6,0.2c3.2,0.5,4.7,2.9,4.1,6c-0.3,1.5-1.3,2.7-2.7,3.2
	c-2.1,0.9-4.2,0.8-6.4,0.7c-0.1,0-0.4-0.4-0.4-0.6L23.5,28.7L23.5,28.7z"/>
</svg>
