<?xml version="1.0" encoding="utf-8"?>
<!-- Generator: Adobe Illustrator 26.3.1, SVG Export Plug-In . SVG Version: 6.00 Build 0)  -->
<svg version="1.1" id="Layer_1" xmlns="http://www.w3.org/2000/svg" xmlns:xlink="http://www.w3.org/1999/xlink" x="0px" y="0px"
	 viewBox="0 0 78.5 70" style="enable-background:new 0 0 78.5 70;" xml:space="preserve">
<style type="text/css">
	.st0{fill:#1A1B1F;}
	.st1{fill:#2C2D30;}
</style>
<g>
	<path class="st0" d="M62.7,1.5c0.8-0.1,1.7,0,2.5,0c4.1,0,8.2,0,12.3,0c0.3,0,0.6,0,1,0C65.4,24,52.4,46.3,39.3,68.7
		C26.2,46.3,13.1,24,0.1,1.7c0.2-0.2,0.4-0.1,0.6-0.1c4.9,0,9.8-0.1,14.7-0.1c0.1,0,0.3,0,0.4,0.1c0.1,0.1,0.1,0.3,0.2,0.4
		c2.2,3.7,4.3,7.4,6.5,11.1c5.1,8.7,10.1,17.4,15.2,26.1c0.6,1,1.1,1.9,1.8,3c0.1-0.2,0.2-0.3,0.3-0.4c3.2-5.6,6.5-11.2,9.7-16.8
		c3.6-6.3,7.3-12.6,10.9-18.9C61.1,4.5,62,3.1,62.7,1.5z"/>
	<path class="st1" d="M62.7,1.5c-0.7,1.5-1.6,3-2.5,4.5c-3.6,6.3-7.3,12.6-10.9,18.9c-3.2,5.6-6.5,11.2-9.7,16.8
		c-0.1,0.1-0.1,0.2-0.3,0.4c-0.6-1-1.2-2-1.8-3c-5.1-8.7-10.1-17.4-15.2-26.1C20.2,9.4,18.1,5.7,15.9,2c-0.1-0.1-0.1-0.3-0.2-0.4
		c0.2,0,0.5-0.1,0.7-0.1c4.2,0,8.4,0,12.7,0c0.6,0,0.9,0.2,1.2,0.7c2.8,4.6,5.6,9.3,8.3,13.9c0.2,0.3,0.4,0.6,0.6,0.9
		c0.9-1.4,1.7-2.8,2.5-4.1c2.2-3.6,4.3-7.2,6.5-10.8c0.2-0.4,0.4-0.6,0.9-0.6c4.4,0,8.8,0,13.2,0C62.4,1.5,62.6,1.5,62.7,1.5z"/>
</g>
</svg>
