<?xml version="1.0" encoding="UTF-8"?><svg id="Layer_1" xmlns="http://www.w3.org/2000/svg" viewBox="0 0 70.03 70"><path d="M.03,35.01c0-7.25-.02-14.5,0-21.74C.06,5.9,5.9,.03,13.25,.02,27.62,0,41.99,0,56.36,0c7,0,12.36,4.42,13.47,11.24,.32,1.99,.16,4.07,.16,6.1,.01,13.12,.01,26.23,0,39.35,0,7.41-5.73,13.25-13.16,13.27-14.68,.05-29.37,.04-44.06,0-6.58-.02-12.49-5.68-12.69-12.27-.16-5.36-.06-10.73-.06-16.1,0-2.2,0-4.39,0-6.59h0Zm55.77-2.22h-.14c0-4.64-.01-9.28,.01-13.93,0-.72-.2-1.01-.96-.97-1.06,.06-2.13,.05-3.2,0-.71-.03-.92,.26-.92,.94,.03,2.32,.01,4.64,.01,6.96,0,1.3,0,1.29-1.26,1.24-2.92-.12-5.72,.36-8.16,2.05-3.96,2.73-5.26,6.63-4.64,11.26,.51,3.78,2.45,6.59,6.08,7.94,4.28,1.59,8.52,.91,12.66-.7,.24-.09,.48-.56,.49-.85,.03-4.64,.02-9.28,.02-13.92Zm-20.28,15.9c-.24-.46-.36-.74-.52-1-2.63-4.27-5.26-8.55-7.91-12.81-.34-.55-.4-.95-.04-1.53,1.89-3.03,3.75-6.09,5.61-9.14,.75-1.22,1.48-2.44,2.36-3.89-1.7,0-3.16,.03-4.61-.01-.62-.02-.98,.23-1.27,.75-1.65,3-3.31,5.98-4.97,8.97-.24,.42-.49,.84-.78,1.34-.18-.24-.28-.35-.36-.49-1.82-3.22-3.65-6.44-5.44-9.68-.34-.63-.71-.95-1.45-.9-.94,.06-1.88,.01-2.82,.01-.63,0-1.26,0-2.12,0,.36,.62,.57,1,.79,1.37,2.43,4.03,4.86,8.06,7.31,12.07,.31,.5,.31,.85,0,1.35-2.47,3.97-4.91,7.96-7.35,11.94-.3,.48-.55,.99-.92,1.66,1.77,0,3.27-.03,4.77,.01,.62,.02,.95-.23,1.24-.76,1.11-2.04,2.27-4.05,3.4-6.07,.81-1.44,1.6-2.89,2.45-4.43,.22,.28,.36,.44,.47,.62,1.91,3.28,3.81,6.56,5.74,9.83,.19,.32,.55,.74,.85,.75,1.78,.07,3.56,.03,5.56,.03Z"/><path d="M50.62,38c0,1.85-.02,3.7,.01,5.55,.01,.7-.23,1.09-.94,1.08-1.18,0-2.41,.15-3.54-.1-2.64-.56-3.97-2.41-4.4-5.01-.55-3.32,.7-6.24,3.32-7.52,1.5-.73,3.09-.95,4.76-.66,.59,.1,.79,.34,.78,.92-.02,1.91,0,3.82,0,5.74h.01Z"/></svg>